<svg xmlns="http://www.w3.org/2000/svg" version="1.1" xmlns:xlink="http://www.w3.org/1999/xlink" xmlns:svgjs="http://svgjs.dev/svgjs" viewBox="0 0 24.777376531534095 6.815677780619335"><g transform="matrix(1,0,0,1,4.982676544605374,2.2777951403096677)"><rect width="24.777376531534095" height="24.777376531534095" x="-4.982676544605373" y="-11.258644515767049" fill="#000000"></rect><g><path d=" M 0.033 0.8295 Q 0.033 0.732 0.06975 0.63825 Q 0.1065 0.5445 0.177 0.46799999999999997 Q 0.2475 0.39149999999999996 0.34875 0.34575 Q 0.45 0.30000000000000004 0.5775 0.30000000000000004 Q 0.7305 0.30000000000000004 0.8445 0.36375 Q 0.9585 0.4275 1.014 0.5325 L 0.7905 0.6915 Q 0.771 0.639 0.7342500000000001 0.6104999999999999 Q 0.6975 0.582 0.65475 0.57075 Q 0.612 0.5595 0.5715 0.5595 Q 0.5085000000000001 0.5595 0.46275 0.5842499999999999 Q 0.417 0.609 0.38775 0.6495 Q 0.3585 0.69 0.34425 0.7394999999999999 Q 0.33 0.789 0.33 0.8385 Q 0.33 0.8939999999999999 0.34650000000000003 0.9450000000000001 Q 0.363 0.996 0.3945 1.03575 Q 0.426 1.0755 0.47175 1.0979999999999999 Q 0.5175 1.1205 0.5745 1.1205 Q 0.615 1.1205 0.657 1.10775 Q 0.6990000000000001 1.095 0.7335 1.0665 Q 0.768 1.038 0.786 0.99 L 1.0245 1.1325 Q 0.993 1.2105 0.9195 1.266 Q 0.846 1.3215 0.753 1.35075 Q 0.66 1.38 0.5685 1.38 Q 0.45 1.38 0.35175 1.33275 Q 0.2535 1.2855 0.18225 1.20675 Q 0.111 1.1280000000000001 0.07200000000000001 1.02975 Q 0.033 0.9315 0.033 0.8295 M 2.0744685058593753 0.30600000000000005 L 2.0744685058593753 1.371 L 1.7819685058593748 1.371 L 1.7819685058593748 0.954 L 1.424968505859375 0.954 L 1.424968505859375 1.371 L 1.1324685058593749 1.371 L 1.1324685058593749 0.30600000000000005 L 1.424968505859375 0.30600000000000005 L 1.424968505859375 0.699 L 1.7819685058593748 0.699 L 1.7819685058593748 0.30600000000000005 L 2.0744685058593753 0.30600000000000005 M 3.0209685058593747 1.116 L 3.0209685058593747 1.371 L 2.261968505859375 1.371 L 2.261968505859375 0.30600000000000005 L 3.007468505859375 0.30600000000000005 L 3.007468505859375 0.5609999999999999 L 2.554468505859375 0.5609999999999999 L 2.554468505859375 0.711 L 2.941468505859375 0.711 L 2.941468505859375 0.948 L 2.554468505859375 0.948 L 2.554468505859375 1.116 L 3.0209685058593747 1.116 M 3.11094580078125 1.1535 L 3.5939458007812495 0.5609999999999999 L 3.13344580078125 0.5609999999999999 L 3.13344580078125 0.30600000000000005 L 3.9464458007812495 0.30600000000000005 L 3.9464458007812495 0.5235 L 3.4934458007812497 1.116 L 3.9554458007812494 1.116 L 3.9554458007812494 1.371 L 3.11094580078125 1.371 L 3.11094580078125 1.1535 M 4.441423095703125 1.371 L 4.441423095703125 0.30600000000000005 L 4.733923095703125 0.30600000000000005 L 4.733923095703125 1.116 L 5.216923095703125 1.116 L 5.216923095703125 1.371 L 4.441423095703125 1.371 M 5.5694560546875005 0.30600000000000005 L 5.8964560546875004 0.30600000000000005 L 6.2354560546875 1.371 L 5.9384560546875 1.371 L 5.8739560546875005 1.1625 L 5.5904560546875 1.1625 L 5.5274560546875 1.371 L 5.2289560546875 1.371 L 5.5694560546875005 0.30600000000000005 M 5.8274560546875005 0.9675 L 5.7329560546875005 0.5925 L 5.6339560546875 0.9675 L 5.8274560546875005 0.9675 M 6.62536376953125 1.371 L 6.62536376953125 0.30600000000000005 L 7.084363769531251 0.30600000000000005 Q 7.16236376953125 0.30600000000000005 7.22836376953125 0.3374999999999999 Q 7.294363769531251 0.369 7.34236376953125 0.42225 Q 7.39036376953125 0.4754999999999999 7.41661376953125 0.5415 Q 7.44286376953125 0.6074999999999999 7.44286376953125 0.6749999999999999 Q 7.44286376953125 0.7695 7.39861376953125 0.8535 Q 7.3543637695312505 0.9375 7.27561376953125 0.99075 Q 7.196863769531251 1.044 7.09186376953125 1.044 L 6.917863769531251 1.044 L 6.917863769531251 1.371 L 6.62536376953125 1.371 M 6.917863769531251 0.789 L 7.0723637695312505 0.789 Q 7.09036376953125 0.789 7.106863769531251 0.7785 Q 7.123363769531251 0.768 7.13461376953125 0.7424999999999999 Q 7.145863769531251 0.717 7.145863769531251 0.6749999999999999 Q 7.145863769531251 0.63 7.133113769531251 0.60525 Q 7.1203637695312505 0.5805 7.101613769531251 0.57075 Q 7.082863769531251 0.5609999999999999 7.06486376953125 0.5609999999999999 L 6.917863769531251 0.5609999999999999 L 6.917863769531251 0.789 M 8.323342529296875 1.116 L 8.323342529296875 1.371 L 7.564342529296876 1.371 L 7.564342529296876 0.30600000000000005 L 8.309842529296876 0.30600000000000005 L 8.309842529296876 0.5609999999999999 L 7.856842529296876 0.5609999999999999 L 7.856842529296876 0.711 L 8.243842529296876 0.711 L 8.243842529296876 0.948 L 7.856842529296876 0.948 L 7.856842529296876 1.116 L 8.323342529296875 1.116 M 8.036842529296877 0.2609999999999999 L 7.856842529296876 0.21300000000000008 L 7.931842529296875 0 L 8.185342529296875 0 L 8.036842529296877 0.2609999999999999 M 8.46431982421875 1.371 L 8.46431982421875 0.30600000000000005 L 8.92331982421875 0.30600000000000005 Q 9.00131982421875 0.30600000000000005 9.06731982421875 0.3374999999999999 Q 9.13331982421875 0.369 9.18131982421875 0.42225 Q 9.22931982421875 0.4754999999999999 9.25556982421875 0.5415 Q 9.28181982421875 0.6074999999999999 9.28181982421875 0.6749999999999999 Q 9.28181982421875 0.7695 9.23756982421875 0.8535 Q 9.19331982421875 0.9375 9.11456982421875 0.99075 Q 9.03581982421875 1.044 8.93081982421875 1.044 L 8.75681982421875 1.044 L 8.75681982421875 1.371 L 8.46431982421875 1.371 M 8.75681982421875 0.789 L 8.91131982421875 0.789 Q 8.92931982421875 0.789 8.94581982421875 0.7785 Q 8.96231982421875 0.768 8.97356982421875 0.7424999999999999 Q 8.98481982421875 0.717 8.98481982421875 0.6749999999999999 Q 8.98481982421875 0.63 8.97206982421875 0.60525 Q 8.959319824218749 0.5805 8.94056982421875 0.57075 Q 8.92181982421875 0.5609999999999999 8.90381982421875 0.5609999999999999 L 8.75681982421875 0.5609999999999999 L 8.75681982421875 0.789 M 10.162298583984375 1.116 L 10.162298583984375 1.371 L 9.403298583984375 1.371 L 9.403298583984375 0.30600000000000005 L 10.148798583984375 0.30600000000000005 L 10.148798583984375 0.5609999999999999 L 9.695798583984375 0.5609999999999999 L 9.695798583984375 0.711 L 10.082798583984376 0.711 L 10.082798583984376 0.948 L 9.695798583984375 0.948 L 9.695798583984375 1.116 L 10.162298583984375 1.116 M 9.875798583984375 0.2609999999999999 L 9.695798583984375 0.21300000000000008 L 9.770798583984375 0 L 10.024298583984375 0 L 9.875798583984375 0.2609999999999999 M 11.06227587890625 1.116 L 11.06227587890625 1.371 L 10.30327587890625 1.371 L 10.30327587890625 0.30600000000000005 L 11.04877587890625 0.30600000000000005 L 11.04877587890625 0.5609999999999999 L 10.59577587890625 0.5609999999999999 L 10.59577587890625 0.711 L 10.982775878906251 0.711 L 10.982775878906251 0.948 L 10.59577587890625 0.948 L 10.59577587890625 1.116 L 11.06227587890625 1.116 M 11.545216552734376 1.371 L 11.545216552734376 0.30600000000000005 L 12.034216552734376 0.30600000000000005 Q 12.112216552734376 0.30600000000000005 12.178216552734376 0.3374999999999999 Q 12.244216552734375 0.369 12.292216552734375 0.42225 Q 12.340216552734375 0.4754999999999999 12.366466552734376 0.5415 Q 12.392716552734376 0.6074999999999999 12.392716552734376 0.6749999999999999 Q 12.392716552734376 0.7364999999999999 12.374716552734375 0.7935 Q 12.356716552734376 0.8505 12.322216552734375 0.89775 Q 12.287716552734375 0.9450000000000001 12.239716552734375 0.9795 L 12.464716552734377 1.371 L 12.143716552734375 1.371 L 11.956216552734375 1.044 L 11.837716552734376 1.044 L 11.837716552734376 1.371 L 11.545216552734376 1.371 M 11.837716552734376 0.789 L 12.022216552734376 0.789 Q 12.040216552734375 0.789 12.056716552734375 0.7755 Q 12.073216552734376 0.762 12.084466552734376 0.7364999999999999 Q 12.095716552734375 0.711 12.095716552734375 0.6749999999999999 Q 12.095716552734375 0.6375 12.082966552734376 0.61275 Q 12.070216552734376 0.588 12.051466552734375 0.5745 Q 12.032716552734376 0.5609999999999999 12.014716552734376 0.5609999999999999 L 11.837716552734376 0.5609999999999999 L 11.837716552734376 0.789 M 13.028739990234376 1.38 Q 12.907239990234375 1.38 12.808239990234377 1.33425 Q 12.709239990234376 1.2885 12.637989990234376 1.21125 Q 12.566739990234376 1.134 12.528489990234375 1.03725 Q 12.490239990234375 0.9405 12.490239990234375 0.837 Q 12.490239990234375 0.7305 12.530739990234375 0.6345 Q 12.571239990234377 0.5385 12.643989990234376 0.46275 Q 12.716739990234375 0.387 12.816489990234375 0.3434999999999999 Q 12.916239990234375 0.30000000000000004 13.034739990234376 0.30000000000000004 Q 13.156239990234376 0.30000000000000004 13.255239990234376 0.34575 Q 13.354239990234376 0.39149999999999996 13.424739990234375 0.46950000000000003 Q 13.495239990234376 0.5475 13.533489990234376 0.64425 Q 13.571739990234375 0.741 13.571739990234375 0.843 Q 13.571739990234375 0.948 13.531989990234376 1.044 Q 13.492239990234376 1.14 13.419489990234375 1.2157499999999999 Q 13.346739990234376 1.2915 13.247739990234376 1.33575 Q 13.148739990234375 1.38 13.028739990234376 1.38 M 12.787239990234376 0.84 Q 12.787239990234376 0.8939999999999999 12.802239990234376 0.94425 Q 12.817239990234375 0.9944999999999999 12.847239990234376 1.0342500000000001 Q 12.877239990234376 1.074 12.922989990234376 1.09725 Q 12.968739990234376 1.1205 13.031739990234376 1.1205 Q 13.094739990234375 1.1205 13.141239990234375 1.0965 Q 13.187739990234375 1.0725 13.216989990234376 1.03125 Q 13.246239990234375 0.99 13.260489990234376 0.93975 Q 13.274739990234377 0.8895 13.274739990234377 0.837 Q 13.274739990234377 0.783 13.259739990234376 0.7334999999999999 Q 13.244739990234375 0.6839999999999999 13.214739990234376 0.64425 Q 13.184739990234377 0.6044999999999999 13.138239990234375 0.582 Q 13.091739990234377 0.5595 13.030239990234376 0.5595 Q 12.967239990234376 0.5595 12.921489990234376 0.5835 Q 12.875739990234376 0.6074999999999999 12.845739990234376 0.64725 Q 12.815739990234375 0.6869999999999999 12.801489990234376 0.73725 Q 12.787239990234376 0.7875 12.787239990234376 0.84 M 13.993261962890626 0.8475 L 13.993261962890626 1.371 L 13.700761962890626 1.371 L 13.700761962890626 0.30600000000000005 L 13.928761962890626 0.30600000000000005 L 14.356261962890626 0.8475 L 14.356261962890626 0.30600000000000005 L 14.648761962890626 0.30600000000000005 L 14.648761962890626 1.371 L 14.416261962890626 1.371 L 13.993261962890626 0.8475 M 15.052304443359375 0.30600000000000005 L 15.242804443359375 0.741 L 15.437804443359376 0.30600000000000005 L 15.755804443359377 0.30600000000000005 L 15.388304443359376 1.0185 L 15.388304443359376 1.371 L 15.097304443359375 1.371 L 15.097304443359375 1.0155 L 14.735804443359376 0.30600000000000005 L 15.052304443359375 0.30600000000000005" fill="#ffffff" fill-rule="nonzero"></path></g><g><path d=" M 0.378 1.8273375 Q 0.36675 1.8145875 0.35175 1.8044625 Q 0.33675 1.7943375000000001 0.318 1.7868375 Q 0.29925 1.7793375 0.277875 1.7748375 Q 0.2565 1.7703375000000001 0.2325 1.7703375000000001 Q 0.16275 1.7703375000000001 0.130125 1.7969625 Q 0.0975 1.8235875 0.0975 1.8693375 Q 0.0975 1.9008375 0.112875 1.9188375 Q 0.12825 1.9368375 0.16125 1.9480875 Q 0.19425 1.9593375 0.24525 1.9713375 Q 0.30225 1.9833375 0.3435 1.9998375 Q 0.38475 2.0163375 0.40725 2.0444625 Q 0.42975 2.0725875 0.42975 2.1205875 Q 0.42975 2.1573375 0.41550000000000004 2.1843375 Q 0.40125 2.2113375 0.37575000000000003 2.2293375 Q 0.35025 2.2473375 0.315 2.2559625 Q 0.27975 2.2645875 0.23775000000000002 2.2645875 Q 0.1965 2.2645875 0.15862500000000002 2.2559625 Q 0.12075 2.2473375 0.08700000000000001 2.2304625000000002 Q 0.05325 2.2135875 0.024 2.1873375 L 0.05025 2.1445875 Q 0.0645 2.1595875 0.084375 2.1727125 Q 0.10425 2.1858375 0.128625 2.1963375 Q 0.153 2.2068375000000002 0.181125 2.2124625 Q 0.20925 2.2180875 0.23925000000000002 2.2180875 Q 0.303 2.2180875 0.338625 2.1948375 Q 0.37425 2.1715875000000002 0.37425 2.1258375 Q 0.37425 2.0928375 0.35625 2.0729625 Q 0.33825 2.0530875 0.30225 2.0403375 Q 0.26625 2.0275875 0.21375 2.0155875 Q 0.15825 2.0028375 0.12 1.9870875 Q 0.08175 1.9713375 0.062625 1.9454625 Q 0.043500000000000004 1.9195875 0.043500000000000004 1.8768375 Q 0.043500000000000004 1.8273375 0.067875 1.7932125 Q 0.09225 1.7590875000000001 0.135 1.7414625 Q 0.17775 1.7238375000000001 0.23325 1.7238375000000001 Q 0.2685 1.7238375000000001 0.298875 1.7309625 Q 0.32925 1.7380875 0.355125 1.7515874999999999 Q 0.381 1.7650875 0.4035 1.7853375 L 0.378 1.8273375 M 0.6783706054687499 1.7275875 L 0.72262060546875 1.7275875 L 0.94387060546875 2.2600875 L 0.8883706054687499 2.2600875 L 0.81937060546875 2.0935875 L 0.58012060546875 2.0935875 L 0.51187060546875 2.2600875 L 0.45562060546874994 2.2600875 L 0.6783706054687499 1.7275875 M 0.80737060546875 2.0523375 L 0.7001206054687499 1.7890875 L 0.59137060546875 2.0523375 L 0.80737060546875 2.0523375 M 0.9749989013671874 1.7275875 L 1.1654989013671875 2.1948375 L 1.3552489013671873 1.7275875 L 1.4099989013671874 1.7275875 L 1.1894989013671875 2.2600875 L 1.1414989013671875 2.2600875 L 0.9202489013671874 1.7275875 L 0.9749989013671874 1.7275875 M 1.6819028320312497 2.2638375 Q 1.6256528320312498 2.2638375 1.5799028320312496 2.2413375 Q 1.5341528320312496 2.2188375000000002 1.5011528320312497 2.1802125 Q 1.4681528320312496 2.1415875 1.4501528320312498 2.0932125 Q 1.4321528320312498 2.0448375 1.4321528320312498 1.9938375000000002 Q 1.4321528320312498 1.9405875 1.4509028320312496 1.8922125 Q 1.4696528320312496 1.8438375 1.5037778320312496 1.8059625000000001 Q 1.5379028320312498 1.7680875 1.5836528320312497 1.7459625 Q 1.6294028320312497 1.7238375000000001 1.6826528320312497 1.7238375000000001 Q 1.7389028320312496 1.7238375000000001 1.7846528320312496 1.7470875000000001 Q 1.8304028320312498 1.7703375000000001 1.8630278320312497 1.8093375 Q 1.8956528320312498 1.8483375 1.9136528320312496 1.8963375 Q 1.9316528320312498 1.9443375 1.9316528320312498 1.9945875 Q 1.9316528320312498 2.0478375 1.9129028320312496 2.0962125 Q 1.8941528320312497 2.1445875 1.8604028320312498 2.1824625 Q 1.8266528320312496 2.2203375 1.7809028320312497 2.2420875000000002 Q 1.7351528320312497 2.2638375 1.6819028320312497 2.2638375 M 1.4846528320312498 1.9938375000000002 Q 1.4846528320312498 2.0373375 1.4989028320312496 2.0774625 Q 1.5131528320312497 2.1175875 1.5394028320312496 2.1487125000000002 Q 1.5656528320312497 2.1798375 1.6020278320312498 2.1982125 Q 1.6384028320312498 2.2165875 1.6819028320312497 2.2165875 Q 1.7276528320312496 2.2165875 1.7640278320312497 2.1974625 Q 1.8004028320312497 2.1783375 1.8262778320312498 2.1464625 Q 1.8521528320312497 2.1145875 1.8656528320312498 2.0748375 Q 1.8791528320312496 2.0350875 1.8791528320312496 1.9938375000000002 Q 1.8791528320312496 1.9503375 1.8649028320312497 1.9105875 Q 1.8506528320312496 1.8708375 1.8240278320312497 1.8393375 Q 1.7974028320312496 1.8078375 1.7614028320312496 1.7898375 Q 1.7254028320312496 1.7718375 1.6819028320312497 1.7718375 Q 1.6369028320312498 1.7718375 1.6005278320312497 1.7905875 Q 1.5641528320312497 1.8093375 1.5382778320312496 1.8412125000000001 Q 1.5124028320312497 1.8730875 1.4985278320312496 1.9128375 Q 1.4846528320312498 1.9525875 1.4846528320312498 1.9938375000000002 M 2.2485102539062494 2.2638375 Q 2.1855102539062496 2.2638375 2.1420102539062493 2.2413375 Q 2.0985102539062495 2.2188375000000002 2.0730102539062494 2.1809625 Q 2.0475102539062493 2.1430875 2.0358852539062493 2.0950875 Q 2.0242602539062493 2.0470875 2.0242602539062493 1.9960875 L 2.0242602539062493 1.7275875 L 2.0760102539062495 1.7275875 L 2.0760102539062495 1.9960875 Q 2.0760102539062495 2.0373375 2.0846352539062494 2.0770875 Q 2.0932602539062497 2.1168375 2.1127602539062496 2.1483375000000002 Q 2.1322602539062494 2.1798375 2.1652602539062493 2.1982125 Q 2.1982602539062497 2.2165875 2.2477602539062493 2.2165875 Q 2.2987602539062495 2.2165875 2.3321352539062494 2.1974625 Q 2.3655102539062494 2.1783375 2.3846352539062496 2.1468375 Q 2.4037602539062495 2.1153375 2.4120102539062493 2.0759625 Q 2.4202602539062497 2.0365875 2.4202602539062497 1.9960875 L 2.4202602539062497 1.7275875 L 2.4727602539062494 1.7275875 L 2.4727602539062494 1.9960875 Q 2.4727602539062494 2.0493375 2.4607602539062494 2.0980875 Q 2.4487602539062494 2.1468375 2.4221352539062497 2.1835875000000002 Q 2.3955102539062496 2.2203375 2.3527602539062493 2.2420875000000002 Q 2.3100102539062495 2.2638375 2.2485102539062494 2.2638375 M 2.599138916015624 2.2600875 L 2.599138916015624 1.7275875 L 2.8241389160156243 1.7275875 Q 2.8586389160156243 1.7275875 2.8871389160156244 1.7418375 Q 2.915638916015624 1.7560875 2.9370139160156246 1.7804625 Q 2.9583889160156245 1.8048375 2.9700139160156245 1.8344624999999999 Q 2.9816389160156245 1.8640875000000001 2.9816389160156245 1.8948375 Q 2.9816389160156245 1.9330875 2.9670139160156244 1.9668375 Q 2.9523889160156243 2.0005875 2.925763916015624 2.0238375 Q 2.8991389160156245 2.0470875 2.8631389160156244 2.0545875000000002 L 2.9936389160156245 2.2600875 L 2.9343889160156245 2.2600875 L 2.809138916015624 2.0635875 L 2.6516389160156244 2.0635875 L 2.6516389160156244 2.2600875 L 2.599138916015624 2.2600875 M 2.6516389160156244 2.0170875 L 2.8256389160156243 2.0170875 Q 2.857138916015624 2.0170875 2.880388916015624 1.9998375 Q 2.903638916015624 1.9825875 2.916388916015624 1.9544625 Q 2.9291389160156243 1.9263375 2.9291389160156243 1.8948375 Q 2.9291389160156243 1.8625875 2.914513916015624 1.8352125 Q 2.8998889160156245 1.8078375 2.8755139160156244 1.7909625 Q 2.8511389160156244 1.7740875 2.821138916015624 1.7740875 L 2.6516389160156244 1.7740875 L 2.6516389160156244 2.0170875 M 3.447775268554687 2.2135875 L 3.447775268554687 2.2600875 L 3.0900252685546867 2.2600875 L 3.0900252685546867 1.7275875 L 3.4410252685546867 1.7275875 L 3.4410252685546867 1.7740875 L 3.142525268554687 1.7740875 L 3.142525268554687 1.9660875 L 3.402775268554687 1.9660875 L 3.402775268554687 2.0103375 L 3.142525268554687 2.0103375 L 3.142525268554687 2.2135875 L 3.447775268554687 2.2135875 M 3.504406860351562 2.2188375000000002 L 3.866656860351562 1.7740875 L 3.510406860351562 1.7740875 L 3.510406860351562 1.7275875 L 3.927406860351562 1.7275875 L 3.927406860351562 1.7688375 L 3.5696568603515617 2.2135875 L 3.926656860351562 2.2135875 L 3.926656860351562 2.2600875 L 3.504406860351562 2.2600875 L 3.504406860351562 2.2188375000000002 M 4.213181762695312 2.2600875 L 4.213181762695312 1.7275875 L 4.393931762695312 1.7275875 Q 4.478681762695312 1.7275875 4.535306762695312 1.7632125 Q 4.591931762695312 1.7988375 4.620431762695312 1.8592125 Q 4.648931762695312 1.9195875 4.648931762695312 1.9930875000000001 Q 4.648931762695312 2.0740875 4.617806762695312 2.1340875 Q 4.586681762695312 2.1940875 4.529306762695312 2.2270875 Q 4.471931762695312 2.2600875 4.393931762695312 2.2600875 L 4.213181762695312 2.2600875 M 4.596431762695312 1.9930875000000001 Q 4.596431762695312 1.9293375 4.572806762695312 1.8798375 Q 4.549181762695312 1.8303375 4.504181762695312 1.8022125 Q 4.459181762695312 1.7740875 4.393931762695312 1.7740875 L 4.265681762695312 1.7740875 L 4.265681762695312 2.2135875 L 4.393931762695312 2.2135875 Q 4.459931762695312 2.2135875 4.504931762695312 2.1843375 Q 4.549931762695312 2.1550875 4.573181762695312 2.1052125 Q 4.596431762695312 2.0553375 4.596431762695312 1.9930875000000001 M 5.108326904296875 2.2135875 L 5.108326904296875 2.2600875 L 4.750576904296874 2.2600875 L 4.750576904296874 1.7275875 L 5.101576904296874 1.7275875 L 5.101576904296874 1.7740875 L 4.803076904296875 1.7740875 L 4.803076904296875 1.9660875 L 5.063326904296875 1.9660875 L 5.063326904296875 2.0103375 L 4.803076904296875 2.0103375 L 4.803076904296875 2.2135875 L 5.108326904296875 2.2135875 M 5.516687255859375 1.8273375 Q 5.505437255859374 1.8145875 5.490437255859375 1.8044625 Q 5.475437255859375 1.7943375000000001 5.456687255859374 1.7868375 Q 5.437937255859374 1.7793375 5.4165622558593745 1.7748375 Q 5.3951872558593745 1.7703375000000001 5.3711872558593745 1.7703375000000001 Q 5.3014372558593745 1.7703375000000001 5.268812255859374 1.7969625 Q 5.236187255859375 1.8235875 5.236187255859375 1.8693375 Q 5.236187255859375 1.9008375 5.251562255859374 1.9188375 Q 5.266937255859375 1.9368375 5.2999372558593745 1.9480875 Q 5.332937255859375 1.9593375 5.383937255859375 1.9713375 Q 5.4409372558593745 1.9833375 5.482187255859374 1.9998375 Q 5.523437255859375 2.0163375 5.545937255859375 2.0444625 Q 5.568437255859375 2.0725875 5.568437255859375 2.1205875 Q 5.568437255859375 2.1573375 5.554187255859374 2.1843375 Q 5.539937255859375 2.2113375 5.514437255859375 2.2293375 Q 5.4889372558593745 2.2473375 5.453687255859375 2.2559625 Q 5.4184372558593745 2.2645875 5.376437255859375 2.2645875 Q 5.335187255859375 2.2645875 5.297312255859374 2.2559625 Q 5.259437255859375 2.2473375 5.225687255859374 2.2304625000000002 Q 5.191937255859375 2.2135875 5.162687255859375 2.1873375 L 5.188937255859375 2.1445875 Q 5.203187255859374 2.1595875 5.223062255859374 2.1727125 Q 5.242937255859375 2.1858375 5.267312255859375 2.1963375 Q 5.291687255859374 2.2068375000000002 5.319812255859374 2.2124625 Q 5.3479372558593745 2.2180875 5.377937255859375 2.2180875 Q 5.4416872558593745 2.2180875 5.477312255859375 2.1948375 Q 5.5129372558593746 2.1715875000000002 5.5129372558593746 2.1258375 Q 5.5129372558593746 2.0928375 5.494937255859375 2.0729625 Q 5.476937255859375 2.0530875 5.4409372558593745 2.0403375 Q 5.404937255859375 2.0275875 5.352437255859375 2.0155875 Q 5.296937255859374 2.0028375 5.258687255859375 1.9870875 Q 5.220437255859375 1.9713375 5.201312255859374 1.9454625 Q 5.1821872558593745 1.9195875 5.1821872558593745 1.8768375 Q 5.1821872558593745 1.8273375 5.2065622558593745 1.7932125 Q 5.2309372558593745 1.7590875000000001 5.273687255859374 1.7414625 Q 5.316437255859374 1.7238375000000001 5.3719372558593745 1.7238375000000001 Q 5.407187255859375 1.7238375000000001 5.437562255859374 1.7309625 Q 5.467937255859375 1.7380875 5.493812255859375 1.7515874999999999 Q 5.519687255859375 1.7650875 5.542187255859375 1.7853375 L 5.516687255859375 1.8273375 M 6.325936889648437 2.2600875 L 6.325936889648437 1.8265875 L 6.133186889648437 2.1633375 L 6.1001868896484375 2.1633375 L 5.906686889648437 1.8265875 L 5.906686889648437 2.2600875 L 5.854186889648437 2.2600875 L 5.854186889648437 1.7275875 L 5.908186889648437 1.7275875 L 6.115936889648437 2.0920875 L 6.325186889648437 1.7275875 L 6.378436889648437 1.7275875 L 6.378436889648437 2.2600875 L 6.325936889648437 2.2600875 M 6.727572509765625 2.2638375 Q 6.671322509765624 2.2638375 6.625572509765624 2.2413375 Q 6.579822509765624 2.2188375000000002 6.546822509765625 2.1802125 Q 6.513822509765625 2.1415875 6.495822509765625 2.0932125 Q 6.477822509765625 2.0448375 6.477822509765625 1.9938375000000002 Q 6.477822509765625 1.9405875 6.496572509765625 1.8922125 Q 6.515322509765625 1.8438375 6.549447509765625 1.8059625000000001 Q 6.583572509765625 1.7680875 6.6293225097656245 1.7459625 Q 6.6750725097656245 1.7238375000000001 6.728322509765625 1.7238375000000001 Q 6.784572509765625 1.7238375000000001 6.830322509765625 1.7470875000000001 Q 6.876072509765625 1.7703375000000001 6.9086975097656245 1.8093375 Q 6.941322509765625 1.8483375 6.959322509765625 1.8963375 Q 6.977322509765624 1.9443375 6.977322509765624 1.9945875 Q 6.977322509765624 2.0478375 6.958572509765625 2.0962125 Q 6.939822509765625 2.1445875 6.906072509765624 2.1824625 Q 6.872322509765625 2.2203375 6.826572509765625 2.2420875000000002 Q 6.780822509765625 2.2638375 6.727572509765625 2.2638375 M 6.530322509765624 1.9938375000000002 Q 6.530322509765624 2.0373375 6.544572509765625 2.0774625 Q 6.5588225097656245 2.1175875 6.585072509765625 2.1487125000000002 Q 6.611322509765625 2.1798375 6.647697509765624 2.1982125 Q 6.684072509765625 2.2165875 6.727572509765625 2.2165875 Q 6.773322509765625 2.2165875 6.809697509765625 2.1974625 Q 6.846072509765625 2.1783375 6.871947509765625 2.1464625 Q 6.897822509765625 2.1145875 6.911322509765625 2.0748375 Q 6.924822509765625 2.0350875 6.924822509765625 1.9938375000000002 Q 6.924822509765625 1.9503375 6.9105725097656245 1.9105875 Q 6.896322509765625 1.8708375 6.869697509765625 1.8393375 Q 6.843072509765625 1.8078375 6.807072509765625 1.7898375 Q 6.771072509765625 1.7718375 6.727572509765625 1.7718375 Q 6.682572509765625 1.7718375 6.646197509765624 1.7905875 Q 6.609822509765625 1.8093375 6.583947509765625 1.8412125000000001 Q 6.5580725097656245 1.8730875 6.544197509765625 1.9128375 Q 6.530322509765624 1.9525875 6.530322509765624 1.9938375000000002 M 7.549179931640625 2.2600875 L 7.549179931640625 1.8265875 L 7.3564299316406245 2.1633375 L 7.323429931640625 2.1633375 L 7.129929931640625 1.8265875 L 7.129929931640625 2.2600875 L 7.077429931640625 2.2600875 L 7.077429931640625 1.7275875 L 7.131429931640625 1.7275875 L 7.339179931640625 2.0920875 L 7.548429931640625 1.7275875 L 7.601679931640625 1.7275875 L 7.601679931640625 2.2600875 L 7.549179931640625 2.2600875 M 8.094065551757812 2.2135875 L 8.094065551757812 2.2600875 L 7.736315551757812 2.2600875 L 7.736315551757812 1.7275875 L 8.087315551757813 1.7275875 L 8.087315551757813 1.7740875 L 7.788815551757812 1.7740875 L 7.788815551757812 1.9660875 L 8.049065551757812 1.9660875 L 8.049065551757812 2.0103375 L 7.788815551757812 2.0103375 L 7.788815551757812 2.2135875 L 8.094065551757812 2.2135875 M 8.246697143554686 1.8243375 L 8.246697143554686 2.2600875 L 8.194197143554687 2.2600875 L 8.194197143554687 1.7275875 L 8.237697143554687 1.7275875 L 8.587197143554686 2.1715875000000002 L 8.587197143554686 1.7283374999999999 L 8.639697143554686 1.7283374999999999 L 8.639697143554686 2.2600875 L 8.590947143554686 2.2600875 L 8.246697143554686 1.8243375 M 9.152301635742187 1.7740875 L 8.962551635742187 1.7740875 L 8.962551635742187 2.2600875 L 8.910051635742187 2.2600875 L 8.910051635742187 1.7740875 L 8.720301635742187 1.7740875 L 8.720301635742187 1.7275875 L 9.152301635742187 1.7275875 L 9.152301635742187 1.7740875 M 9.544165649414062 1.8273375 Q 9.532915649414061 1.8145875 9.51791564941406 1.8044625 Q 9.502915649414062 1.7943375000000001 9.484165649414061 1.7868375 Q 9.465415649414062 1.7793375 9.444040649414061 1.7748375 Q 9.422665649414062 1.7703375000000001 9.398665649414061 1.7703375000000001 Q 9.328915649414062 1.7703375000000001 9.296290649414061 1.7969625 Q 9.263665649414062 1.8235875 9.263665649414062 1.8693375 Q 9.263665649414062 1.9008375 9.279040649414062 1.9188375 Q 9.294415649414061 1.9368375 9.327415649414062 1.9480875 Q 9.360415649414062 1.9593375 9.411415649414062 1.9713375 Q 9.468415649414062 1.9833375 9.509665649414062 1.9998375 Q 9.550915649414062 2.0163375 9.573415649414061 2.0444625 Q 9.595915649414062 2.0725875 9.595915649414062 2.1205875 Q 9.595915649414062 2.1573375 9.581665649414061 2.1843375 Q 9.56741564941406 2.2113375 9.541915649414062 2.2293375 Q 9.516415649414062 2.2473375 9.481165649414061 2.2559625 Q 9.445915649414061 2.2645875 9.403915649414062 2.2645875 Q 9.362665649414062 2.2645875 9.324790649414062 2.2559625 Q 9.28691564941406 2.2473375 9.253165649414061 2.2304625000000002 Q 9.219415649414062 2.2135875 9.19016564941406 2.1873375 L 9.216415649414062 2.1445875 Q 9.230665649414062 2.1595875 9.250540649414061 2.1727125 Q 9.270415649414062 2.1858375 9.294790649414061 2.1963375 Q 9.319165649414062 2.2068375000000002 9.347290649414061 2.2124625 Q 9.375415649414062 2.2180875 9.405415649414062 2.2180875 Q 9.469165649414062 2.2180875 9.504790649414062 2.1948375 Q 9.540415649414062 2.1715875000000002 9.540415649414062 2.1258375 Q 9.540415649414062 2.0928375 9.52241564941406 2.0729625 Q 9.504415649414062 2.0530875 9.468415649414062 2.0403375 Q 9.432415649414061 2.0275875 9.37991564941406 2.0155875 Q 9.324415649414062 2.0028375 9.28616564941406 1.9870875 Q 9.247915649414061 1.9713375 9.228790649414062 1.9454625 Q 9.209665649414061 1.9195875 9.209665649414061 1.8768375 Q 9.209665649414061 1.8273375 9.234040649414062 1.7932125 Q 9.258415649414061 1.7590875000000001 9.301165649414061 1.7414625 Q 9.343915649414061 1.7238375000000001 9.399415649414061 1.7238375000000001 Q 9.434665649414061 1.7238375000000001 9.465040649414062 1.7309625 Q 9.495415649414062 1.7380875 9.52129064941406 1.7515874999999999 Q 9.547165649414062 1.7650875 9.56966564941406 1.7853375 L 9.544165649414062 1.8273375 M 9.881665283203125 2.2600875 L 9.881665283203125 1.7275875 L 10.062415283203125 1.7275875 Q 10.147165283203124 1.7275875 10.203790283203125 1.7632125 Q 10.260415283203123 1.7988375 10.288915283203124 1.8592125 Q 10.317415283203124 1.9195875 10.317415283203124 1.9930875000000001 Q 10.317415283203124 2.0740875 10.286290283203124 2.1340875 Q 10.255165283203125 2.1940875 10.197790283203124 2.2270875 Q 10.140415283203124 2.2600875 10.062415283203125 2.2600875 L 9.881665283203125 2.2600875 M 10.264915283203123 1.9930875000000001 Q 10.264915283203123 1.9293375 10.241290283203124 1.8798375 Q 10.217665283203123 1.8303375 10.172665283203123 1.8022125 Q 10.127665283203124 1.7740875 10.062415283203125 1.7740875 L 9.934165283203123 1.7740875 L 9.934165283203123 2.2135875 L 10.062415283203125 2.2135875 Q 10.128415283203124 2.2135875 10.173415283203123 2.1843375 Q 10.218415283203123 2.1550875 10.241665283203124 2.1052125 Q 10.264915283203123 2.0553375 10.264915283203123 1.9930875000000001 M 10.776810424804687 2.2135875 L 10.776810424804687 2.2600875 L 10.419060424804687 2.2600875 L 10.419060424804687 1.7275875 L 10.770060424804687 1.7275875 L 10.770060424804687 1.7740875 L 10.471560424804686 1.7740875 L 10.471560424804686 1.9660875 L 10.731810424804687 1.9660875 L 10.731810424804687 2.0103375 L 10.471560424804686 2.0103375 L 10.471560424804686 2.2135875 L 10.776810424804687 2.2135875 M 11.069320678710938 2.2600875 L 11.069320678710938 1.7275875 L 11.289820678710937 1.7275875 Q 11.324320678710937 1.7275875 11.353195678710938 1.7418375 Q 11.382070678710937 1.7560875 11.403070678710936 1.7804625 Q 11.424070678710937 1.8048375 11.436070678710937 1.8344624999999999 Q 11.448070678710938 1.8640875000000001 11.448070678710938 1.8948375 Q 11.448070678710938 1.9383375 11.428945678710937 1.9769625 Q 11.409820678710936 2.0155875 11.375320678710937 2.0395875 Q 11.340820678710937 2.0635875 11.294320678710937 2.0635875 L 11.121820678710936 2.0635875 L 11.121820678710936 2.2600875 L 11.069320678710938 2.2600875 M 11.121820678710936 2.0170875 L 11.292070678710937 2.0170875 Q 11.323570678710936 2.0170875 11.346820678710937 1.9998375 Q 11.370070678710936 1.9825875 11.382820678710937 1.9548375 Q 11.395570678710937 1.9270875 11.395570678710937 1.8948375 Q 11.395570678710937 1.8618375 11.380570678710937 1.8340875 Q 11.365570678710936 1.8063375000000002 11.341195678710937 1.7902125 Q 11.316820678710936 1.7740875 11.287570678710937 1.7740875 L 11.121820678710936 1.7740875 L 11.121820678710936 2.0170875 M 11.53695263671875 2.2600875 L 11.53695263671875 1.7275875 L 11.589452636718748 1.7275875 L 11.589452636718748 2.2135875 L 11.89695263671875 2.2135875 L 11.89695263671875 2.2600875 L 11.53695263671875 2.2600875 M 12.14033349609375 1.7275875 L 12.18458349609375 1.7275875 L 12.405833496093749 2.2600875 L 12.35033349609375 2.2600875 L 12.28133349609375 2.0935875 L 12.042083496093749 2.0935875 L 11.97383349609375 2.2600875 L 11.91758349609375 2.2600875 L 12.14033349609375 1.7275875 M 12.269333496093749 2.0523375 L 12.16208349609375 1.7890875 L 12.05333349609375 2.0523375 L 12.269333496093749 2.0523375 M 12.4834775390625 2.2600875 L 12.4834775390625 1.7275875 L 12.535977539062499 1.7275875 L 12.535977539062499 2.2600875 L 12.4834775390625 2.2600875 M 12.981841918945312 1.8273375 Q 12.970591918945312 1.8145875 12.955591918945313 1.8044625 Q 12.940591918945312 1.7943375000000001 12.921841918945312 1.7868375 Q 12.903091918945313 1.7793375 12.881716918945312 1.7748375 Q 12.860341918945313 1.7703375000000001 12.836341918945312 1.7703375000000001 Q 12.766591918945313 1.7703375000000001 12.733966918945312 1.7969625 Q 12.701341918945312 1.8235875 12.701341918945312 1.8693375 Q 12.701341918945312 1.9008375 12.716716918945313 1.9188375 Q 12.732091918945311 1.9368375 12.765091918945313 1.9480875 Q 12.798091918945312 1.9593375 12.849091918945312 1.9713375 Q 12.906091918945313 1.9833375 12.947341918945312 1.9998375 Q 12.988591918945312 2.0163375 13.011091918945311 2.0444625 Q 13.033591918945312 2.0725875 13.033591918945312 2.1205875 Q 13.033591918945312 2.1573375 13.019341918945312 2.1843375 Q 13.005091918945311 2.2113375 12.979591918945312 2.2293375 Q 12.954091918945313 2.2473375 12.918841918945311 2.2559625 Q 12.883591918945312 2.2645875 12.841591918945312 2.2645875 Q 12.800341918945312 2.2645875 12.762466918945313 2.2559625 Q 12.724591918945311 2.2473375 12.690841918945312 2.2304625000000002 Q 12.657091918945312 2.2135875 12.627841918945311 2.1873375 L 12.654091918945312 2.1445875 Q 12.668341918945313 2.1595875 12.688216918945312 2.1727125 Q 12.708091918945312 2.1858375 12.732466918945311 2.1963375 Q 12.756841918945312 2.2068375000000002 12.784966918945312 2.2124625 Q 12.813091918945313 2.2180875 12.843091918945312 2.2180875 Q 12.906841918945313 2.2180875 12.942466918945312 2.1948375 Q 12.978091918945312 2.1715875000000002 12.978091918945312 2.1258375 Q 12.978091918945312 2.0928375 12.960091918945311 2.0729625 Q 12.942091918945312 2.0530875 12.906091918945313 2.0403375 Q 12.870091918945311 2.0275875 12.817591918945311 2.0155875 Q 12.762091918945313 2.0028375 12.723841918945311 1.9870875 Q 12.685591918945311 1.9713375 12.666466918945313 1.9454625 Q 12.647341918945312 1.9195875 12.647341918945312 1.8768375 Q 12.647341918945312 1.8273375 12.671716918945313 1.7932125 Q 12.696091918945312 1.7590875000000001 12.738841918945312 1.7414625 Q 12.781591918945312 1.7238375000000001 12.837091918945312 1.7238375000000001 Q 12.872341918945311 1.7238375000000001 12.902716918945313 1.7309625 Q 12.933091918945312 1.7380875 12.958966918945311 1.7515874999999999 Q 12.984841918945312 1.7650875 13.007341918945311 1.7853375 L 12.981841918945312 1.8273375 M 13.126962890625 2.2600875 L 13.126962890625 1.7275875 L 13.179462890624999 1.7275875 L 13.179462890624999 2.2600875 L 13.126962890625 2.2600875 M 13.314077270507813 2.2600875 L 13.314077270507813 1.7275875 L 13.539077270507812 1.7275875 Q 13.573577270507812 1.7275875 13.602077270507811 1.7418375 Q 13.630577270507812 1.7560875 13.651952270507811 1.7804625 Q 13.673327270507812 1.8048375 13.684952270507813 1.8344624999999999 Q 13.696577270507811 1.8640875000000001 13.696577270507811 1.8948375 Q 13.696577270507811 1.9330875 13.681952270507812 1.9668375 Q 13.667327270507812 2.0005875 13.640702270507813 2.0238375 Q 13.614077270507812 2.0470875 13.578077270507812 2.0545875000000002 L 13.708577270507812 2.2600875 L 13.649327270507811 2.2600875 L 13.524077270507812 2.0635875 L 13.366577270507811 2.0635875 L 13.366577270507811 2.2600875 L 13.314077270507813 2.2600875 M 13.366577270507811 2.0170875 L 13.540577270507812 2.0170875 Q 13.572077270507812 2.0170875 13.595327270507813 1.9998375 Q 13.618577270507812 1.9825875 13.631327270507812 1.9544625 Q 13.644077270507813 1.9263375 13.644077270507813 1.8948375 Q 13.644077270507813 1.8625875 13.629452270507812 1.8352125 Q 13.614827270507812 1.8078375 13.590452270507813 1.7909625 Q 13.566077270507812 1.7740875 13.536077270507812 1.7740875 L 13.366577270507811 1.7740875 L 13.366577270507811 2.0170875 M 14.21109228515625 2.2638375 Q 14.15784228515625 2.2638375 14.11209228515625 2.2409625 Q 14.06634228515625 2.2180875 14.03259228515625 2.1790875 Q 13.99884228515625 2.1400875 13.98046728515625 2.0920875 Q 13.962092285156249 2.0440875 13.962092285156249 1.9930875000000001 Q 13.962092285156249 1.9390875 13.98046728515625 1.8907125 Q 13.99884228515625 1.8423375 14.03184228515625 1.8048375 Q 14.06484228515625 1.7673375 14.10984228515625 1.7455875 Q 14.15484228515625 1.7238375000000001 14.20809228515625 1.7238375000000001 Q 14.286842285156249 1.7238375000000001 14.336342285156249 1.7560875 Q 14.385842285156249 1.7883375 14.41134228515625 1.8400875 L 14.37084228515625 1.8670875 Q 14.34534228515625 1.8175875000000001 14.30259228515625 1.7943375000000001 Q 14.25984228515625 1.7710875000000001 14.20734228515625 1.7710875000000001 Q 14.16309228515625 1.7710875000000001 14.12746728515625 1.7898375 Q 14.09184228515625 1.8085875 14.06634228515625 1.8400875 Q 14.04084228515625 1.8715875 14.02771728515625 1.9113375000000001 Q 14.01459228515625 1.9510875 14.01459228515625 1.9938375000000002 Q 14.01459228515625 2.0388375 14.02959228515625 2.0789625 Q 14.04459228515625 2.1190875 14.07234228515625 2.1502125 Q 14.100092285156249 2.1813375 14.13646728515625 2.1989625 Q 14.17284228515625 2.2165875 14.21484228515625 2.2165875 Q 14.26359228515625 2.2165875 14.30709228515625 2.1922125 Q 14.35059228515625 2.1678375 14.39034228515625 2.1168375 L 14.39034228515625 2.1723375 Q 14.31459228515625 2.2638375 14.21109228515625 2.2638375 M 14.382092285156249 2.0388375 L 14.26359228515625 2.0388375 L 14.26359228515625 1.9983375 L 14.426342285156249 1.9983375 L 14.426342285156249 2.2600875 L 14.382092285156249 2.2600875 L 14.382092285156249 2.0388375 M 14.749969848632812 2.2638375 Q 14.693719848632812 2.2638375 14.647969848632812 2.2413375 Q 14.602219848632812 2.2188375000000002 14.569219848632812 2.1802125 Q 14.536219848632813 2.1415875 14.518219848632812 2.0932125 Q 14.500219848632812 2.0448375 14.500219848632812 1.9938375000000002 Q 14.500219848632812 1.9405875 14.518969848632812 1.8922125 Q 14.537719848632813 1.8438375 14.571844848632812 1.8059625000000001 Q 14.605969848632812 1.7680875 14.651719848632812 1.7459625 Q 14.697469848632812 1.7238375000000001 14.750719848632812 1.7238375000000001 Q 14.806969848632813 1.7238375000000001 14.852719848632812 1.7470875000000001 Q 14.898469848632812 1.7703375000000001 14.931094848632812 1.8093375 Q 14.963719848632811 1.8483375 14.981719848632812 1.8963375 Q 14.999719848632813 1.9443375 14.999719848632813 1.9945875 Q 14.999719848632813 2.0478375 14.980969848632812 2.0962125 Q 14.962219848632811 2.1445875 14.928469848632812 2.1824625 Q 14.894719848632812 2.2203375 14.848969848632812 2.2420875000000002 Q 14.803219848632812 2.2638375 14.749969848632812 2.2638375 M 14.552719848632812 1.9938375000000002 Q 14.552719848632812 2.0373375 14.566969848632812 2.0774625 Q 14.581219848632813 2.1175875 14.607469848632812 2.1487125000000002 Q 14.633719848632811 2.1798375 14.670094848632813 2.1982125 Q 14.706469848632812 2.2165875 14.749969848632812 2.2165875 Q 14.795719848632812 2.2165875 14.832094848632812 2.1974625 Q 14.868469848632811 2.1783375 14.894344848632812 2.1464625 Q 14.920219848632811 2.1145875 14.933719848632812 2.0748375 Q 14.947219848632812 2.0350875 14.947219848632812 1.9938375000000002 Q 14.947219848632812 1.9503375 14.932969848632812 1.9105875 Q 14.918719848632811 1.8708375 14.892094848632812 1.8393375 Q 14.865469848632813 1.8078375 14.829469848632812 1.7898375 Q 14.793469848632812 1.7718375 14.749969848632812 1.7718375 Q 14.704969848632812 1.7718375 14.668594848632813 1.7905875 Q 14.632219848632813 1.8093375 14.606344848632812 1.8412125000000001 Q 14.580469848632813 1.8730875 14.566594848632812 1.9128375 Q 14.552719848632812 1.9525875 14.552719848632812 1.9938375000000002 M 15.316577270507812 2.2638375 Q 15.253577270507812 2.2638375 15.210077270507812 2.2413375 Q 15.166577270507812 2.2188375000000002 15.141077270507813 2.1809625 Q 15.115577270507812 2.1430875 15.103952270507811 2.0950875 Q 15.092327270507813 2.0470875 15.092327270507813 1.9960875 L 15.092327270507813 1.7275875 L 15.144077270507813 1.7275875 L 15.144077270507813 1.9960875 Q 15.144077270507813 2.0373375 15.152702270507811 2.0770875 Q 15.161327270507812 2.1168375 15.180827270507812 2.1483375000000002 Q 15.200327270507811 2.1798375 15.233327270507813 2.1982125 Q 15.266327270507812 2.2165875 15.315827270507812 2.2165875 Q 15.366827270507812 2.2165875 15.400202270507812 2.1974625 Q 15.433577270507811 2.1783375 15.452702270507812 2.1468375 Q 15.471827270507813 2.1153375 15.480077270507811 2.0759625 Q 15.488327270507812 2.0365875 15.488327270507812 1.9960875 L 15.488327270507812 1.7275875 L 15.540827270507812 1.7275875 L 15.540827270507812 1.9960875 Q 15.540827270507812 2.0493375 15.528827270507811 2.0980875 Q 15.516827270507813 2.1468375 15.490202270507812 2.1835875000000002 Q 15.463577270507812 2.2203375 15.420827270507813 2.2420875000000002 Q 15.378077270507813 2.2638375 15.316577270507812 2.2638375 M 15.667205932617188 2.2600875 L 15.667205932617188 1.7275875 L 15.892205932617188 1.7275875 Q 15.926705932617187 1.7275875 15.955205932617186 1.7418375 Q 15.983705932617188 1.7560875 16.005080932617187 1.7804625 Q 16.026455932617186 1.8048375 16.038080932617188 1.8344624999999999 Q 16.049705932617186 1.8640875000000001 16.049705932617186 1.8948375 Q 16.049705932617186 1.9330875 16.035080932617188 1.9668375 Q 16.02045593261719 2.0005875 15.993830932617188 2.0238375 Q 15.967205932617187 2.0470875 15.931205932617187 2.0545875000000002 L 16.061705932617187 2.2600875 L 16.00245593261719 2.2600875 L 15.877205932617187 2.0635875 L 15.719705932617186 2.0635875 L 15.719705932617186 2.2600875 L 15.667205932617188 2.2600875 M 15.719705932617186 2.0170875 L 15.893705932617188 2.0170875 Q 15.925205932617187 2.0170875 15.948455932617188 1.9998375 Q 15.971705932617187 1.9825875 15.984455932617188 1.9544625 Q 15.997205932617188 1.9263375 15.997205932617188 1.8948375 Q 15.997205932617188 1.8625875 15.982580932617187 1.8352125 Q 15.967955932617187 1.8078375 15.943580932617188 1.7909625 Q 15.919205932617187 1.7740875 15.889205932617188 1.7740875 L 15.719705932617186 1.7740875 L 15.719705932617186 2.0170875 M 16.629842285156247 2.2600875 L 16.629842285156247 1.8265875 L 16.437092285156247 2.1633375 L 16.40409228515625 2.1633375 L 16.21059228515625 1.8265875 L 16.21059228515625 2.2600875 L 16.158092285156247 2.2600875 L 16.158092285156247 1.7275875 L 16.21209228515625 1.7275875 L 16.41984228515625 2.0920875 L 16.629092285156247 1.7275875 L 16.68234228515625 1.7275875 L 16.68234228515625 2.2600875 L 16.629842285156247 2.2600875 M 16.98197790527344 1.7275875 L 17.026227905273437 1.7275875 L 17.24747790527344 2.2600875 L 17.191977905273436 2.2600875 L 17.122977905273437 2.0935875 L 16.88372790527344 2.0935875 L 16.815477905273436 2.2600875 L 16.759227905273438 2.2600875 L 16.98197790527344 1.7275875 M 17.110977905273437 2.0523375 L 17.003727905273436 1.7890875 L 16.894977905273436 2.0523375 L 17.110977905273437 2.0523375 M 17.377621948242187 1.8243375 L 17.377621948242187 2.2600875 L 17.325121948242185 2.2600875 L 17.325121948242185 1.7275875 L 17.368621948242186 1.7275875 L 17.718121948242185 2.1715875000000002 L 17.718121948242185 1.7283374999999999 L 17.770621948242187 1.7283374999999999 L 17.770621948242187 2.2600875 L 17.721871948242185 2.2600875 L 17.377621948242187 1.8243375 M 17.905226440429683 2.2600875 L 17.905226440429683 1.7275875 L 18.085976440429683 1.7275875 Q 18.170726440429682 1.7275875 18.227351440429683 1.7632125 Q 18.283976440429683 1.7988375 18.312476440429684 1.8592125 Q 18.340976440429685 1.9195875 18.340976440429685 1.9930875000000001 Q 18.340976440429685 2.0740875 18.309851440429682 2.1340875 Q 18.278726440429683 2.1940875 18.221351440429682 2.2270875 Q 18.163976440429686 2.2600875 18.085976440429683 2.2600875 L 17.905226440429683 2.2600875 M 18.288476440429683 1.9930875000000001 Q 18.288476440429683 1.9293375 18.264851440429684 1.8798375 Q 18.241226440429685 1.8303375 18.196226440429683 1.8022125 Q 18.151226440429685 1.7740875 18.085976440429683 1.7740875 L 17.957726440429685 1.7740875 L 17.957726440429685 2.2135875 L 18.085976440429683 2.2135875 Q 18.151976440429685 2.2135875 18.196976440429683 2.1843375 Q 18.241976440429685 2.1550875 18.265226440429682 2.1052125 Q 18.288476440429683 2.0553375 18.288476440429683 1.9930875000000001 M 18.637250244140617 2.0890875 L 18.637250244140617 1.7223375 L 18.68825024414062 1.7223375 L 18.68825024414062 2.0890875 L 18.637250244140617 2.0890875 M 18.637250244140617 2.2600875 L 18.637250244140617 2.1760875 L 18.68825024414062 2.1760875 L 18.68825024414062 2.2600875 L 18.637250244140617 2.2600875" fill="#ff0000" fill-rule="nonzero"></path></g><g clip-path="url(#SvgjsClipPath1003)"><g clip-path="url(#SvgjsClipPath100127e85381-b69b-4db8-8094-1e9048750ca1)"><path d=" M -0.6287820044237455 -0.8343969721951155 C -0.6281693427577681 -0.6202010282037809 -2.048036317580852 3.431589771946494 -2.24385241159273 3.431589771946494 C -2.441789257525318 3.431589771946494 -3.595313355017924 -0.6277179155671734 -3.746994245168884 -0.8343969721951155 Z" fill="#e37f7c" transform="matrix(1,0,0,1,0,0)" fill-rule="nonzero"></path></g><g clip-path="url(#SvgjsClipPath100127e85381-b69b-4db8-8094-1e9048750ca1)"><path d=" M -2.2437817198620413 3.5004435176387583 C -2.297648818647981 3.5004435176387583 -2.333088939634006 3.4524909603205636 -2.363345000369415 3.4006503578144143 C -2.397730283234174 3.338788373089117 -2.428317826830556 3.2748905459724034 -2.4549379194336955 3.2093114067462505 C -2.517829995837751 3.0606702610149688 -2.5961093056220426 2.850103159199067 -2.694252991730284 2.5656160709914317 C -2.8740456267857173 2.044523760163667 -3.089419766288553 1.363856649257873 -3.279439138383835 0.763118321852474 C -3.4053882385635585 0.3650060585154462 -3.5243388574049526 -0.011050384846241323 -3.6181467840308597 -0.2940529467093793 C -3.748667282795217 -0.6878294505640754 -3.7896213587750793 -0.7760998582859171 -3.8024401259402354 -0.793607843586859 C -3.8177152827926877 -0.8145680011617484 -3.8199455850549264 -0.8423238852334592 -3.808213283946603 -0.8654542058783403 C -3.796514388757597 -0.8885504656233576 -3.77283727194846 -0.903120999044364 -3.7469471173484252 -0.9031564622464477 L -0.6287820044237455 -0.9031564622464477 C -0.5908286274606094 -0.9031566044926828 -0.5600321694142067 -0.8724444625531954 -0.5599282587314813 -0.8344912278360275 C -0.559527672257571 -0.6964774056185106 -0.9673953944298508 0.491072978246317 -1.257113670708558 1.2902429936991386 C -1.3961407410659699 1.6739105800651357 -1.6019008051949388 2.228699282521903 -1.792014432931143 2.692908314054277 C -2.0369377158624884 3.291290250436669 -2.1247132814695 3.4201141476644628 -2.1694375830861725 3.46495626883228 C -2.1885392591724955 3.4861669946184897 -2.2152777032378603 3.4989302582515895 -2.2437817198620413 3.5004435176387583 Z M -3.6386238220207936 -0.7655432265028514 C -3.5510838955160837 -0.5485196132839052 -3.390590102939081 -0.04472321256501588 -3.1481410305818898 0.7215987120270901 C -2.9672644556558723 1.2933298659392727 -2.762258436654266 1.941360961176418 -2.5883332152461227 2.45017647477432 C -2.494077574325844 2.726039171837748 -2.4177776330008762 2.9353338225012253 -2.3552625791605037 3.089960201430946 C -2.3232345154604546 3.17452710255776 -2.2853216400753595 3.256746468034641 -2.2418023514027143 3.3360145520533315 C -2.2015080649092953 3.2755966862234356 -2.1144394166091875 3.1141132094167707 -1.9366968417437729 2.6830350356678725 C -1.7880792599227218 2.32264859260918 -1.6032910758985142 1.8398240719950492 -1.4022909216360202 1.2867555349850792 C -1.056702614201813 0.3358575015608418 -0.7761271350923735 -0.5121369358886741 -0.711538457151752 -0.7655432265028514 Z" fill="#c84449" transform="matrix(1,0,0,1,0,0)" fill-rule="nonzero"></path></g><g clip-path="url(#SvgjsClipPath100127e85381-b69b-4db8-8094-1e9048750ca1)"><path d=" M -0.4096376392840968 -1.0879210823604377 C -0.41878398839161246 -1.0982081948513518 -0.431333835030808 -1.104851247005704 -0.44498350462920255 -1.1066308270831111 C -0.5174896564071267 -1.1176116092503252 -0.5844582892809886 -1.1258589778308499 -0.655338531253038 -1.1345540607057458 C -0.6780305768045936 -1.1373346021128914 -0.7009582614584535 -1.1401622713405029 -0.724357224316913 -1.143107760119259 C -0.7938000677649262 -1.151849970814621 -0.8640440841607657 -1.1585892491404155 -0.9319552734438261 -1.1650928883639153 C -0.958912386747024 -1.167684918489222 -0.9858930639604551 -1.1702533847043008 -1.0128501772636556 -1.1729632343807623 C -1.0558376581559892 -1.1781323156565195 -1.098517884245441 -1.1855970289921098 -1.140707954172012 -1.1953253851891013 C -1.1929332216482784 -1.207488568541619 -1.2459129725136302 -1.2161479631852892 -1.2992930700203846 -1.2212456864421735 C -1.3241529953131081 -1.223107235350348 -1.3511336725265393 -1.224026227849319 -1.3820730866586217 -1.224026227849319 C -1.4088416886799782 -1.224026227849319 -1.4357045463422593 -1.2233664383628757 -1.4616719754157979 -1.2227066488764375 C -1.4867911037210515 -1.2220939872104504 -1.5127820967048176 -1.2214577616342401 -1.5378540971896104 -1.2214577616342401 C -1.5576006539624094 -1.2214577616342401 -1.5751086392633513 -1.2218347841979227 -1.5913441734118705 -1.2226595210559716 C -1.6294941440743544 -1.2245681977846021 -1.6685395433255787 -1.2273723031019856 -1.70631249142438 -1.2300350249579863 C -1.7635256654629892 -1.2341115814277852 -1.8226710801404646 -1.238305957448744 -1.8817929309077095 -1.239790483793236 C -1.8949415928160893 -1.2401203785364525 -1.9083023299165385 -1.2402853259080635 -1.9226291873364194 -1.2402853259080635 C -1.965515503955148 -1.2402853259080635 -2.008543204035254 -1.2388007995635664 -2.0501570695015596 -1.2373634010395351 C -2.0906163033665894 -1.2359495664257318 -2.1324422440249617 -1.2345121679016957 -2.173019297441144 -1.2345121679016957 C -2.2125831027174314 -1.2345121679016957 -2.253301539594994 -1.2356196716825103 -2.2926532696792092 -1.2367036115530918 C -2.3329475561726283 -1.2378111153339066 -2.374584985549162 -1.239060002576099 -2.4160103397336234 -1.239060002576099 C -2.4330470468299636 -1.239060002576099 -2.44878773886365 -1.2388714912942551 -2.464151408333657 -1.2384709048203446 C -2.5226841613451523 -1.2370099423860805 -2.5811697865361847 -1.232697746813977 -2.637723171088351 -1.228550498613484 C -2.6761087808531343 -1.2257228293858777 -2.715790405680571 -1.2228009045173494 -2.754529474098807 -1.220845099968253 C -2.817091655759643 -1.2177110999076528 -2.8797245291511677 -1.2122442727342737 -2.940307342352677 -1.2069423929325105 C -2.974357192635129 -1.203973340243521 -3.0095616745188516 -1.2008864680033822 -3.0439885473649837 -1.1982944378780753 C -3.0819500067456262 -1.195443204740236 -3.120948278176392 -1.1933224528195336 -3.1586976623649656 -1.1912252648090542 C -3.2159579642240335 -1.1881148286586871 -3.2751976345424305 -1.1848865729571654 -3.333989590566454 -1.1789720314894199 C -3.3736476514836604 -1.1749897306605377 -3.4146724191942113 -1.1721149336124703 -3.4543776079318813 -1.169310828295092 C -3.509729233062316 -1.165422783107132 -3.5669659710111556 -1.161416918368017 -3.623707866845163 -1.154277053568307 C -3.6791773115267503 -1.1472078804992858 -3.7312064253147437 -1.1371932186515086 -3.781586065386634 -1.1274377598162588 C -3.8200188029718762 -1.1199915641835603 -3.859747555619774 -1.1122861655383238 -3.9002774812154954 -1.1062302406091955 C -3.9139494689624605 -1.1044215639782982 -3.9265047568766 -1.0977254104240872 -3.9356233465606008 -1.0873791124251344 C -3.943717541996155 -1.0782362569126667 -3.94692614696735 -1.065761270918104 -3.9442477377048055 -1.0538476681677527 C -3.9377916597446467 -1.0235605937104943 -3.933523423995828 -0.9928481962559013 -3.9314760983601054 -0.9619484182704786 C -3.9291320776261487 -0.9275882609881043 -3.92431253321684 -0.8934419463496042 -3.9170549852993077 -0.8597753035128894 C -3.909184639282463 -0.8263616788066577 -3.9008194511507885 -0.7925474676265054 -3.8927370299418724 -0.7598643241373955 C -3.884654608732956 -0.7271811806482908 -3.8763836762422037 -0.693743992031821 -3.8686311497765087 -0.6607545177097276 C -3.8600914722120345 -0.6270779406669329 -3.849475264816771 -0.5939622989180254 -3.8368434348761418 -0.5615975834615937 C -3.8252749411899742 -0.5321203186965532 -3.8155401814976972 -0.5019559420591241 -3.8076948779215503 -0.4712771155497337 C -3.798289037302794 -0.4449677184075417 -3.7707962461225613 -0.42974777380409424 -3.743506786454837 -0.4357427389227845 C -3.7053096879718943 -0.44151589692914717 -3.668267221090225 -0.4478781526912742 -3.632473641450748 -0.4540283332613194 C -3.576768557666864 -0.46359528081473034 -3.5240796543924273 -0.47262025843284794 -3.467879728493711 -0.4795716119507192 C -3.4185635235964944 -0.4846827638671857 -3.3690068478895987 -0.4871212669575268 -3.3194270940442707 -0.48687642412204 C -3.2736188525570165 -0.48751264969825014 -3.2262553929945765 -0.48817243918469333 -3.1789861890730555 -0.4926967099488687 C -3.1326359776505077 -0.49715028898235003 -3.0870869391757836 -0.5046671763457425 -3.043022427045552 -0.5119719885170634 C -2.9915588471030823 -0.5204785601101206 -2.942946500298447 -0.5284667256781125 -2.89398069484036 -0.5318599287512452 C -2.853922047449241 -0.5345933423379298 -2.813509941404674 -0.5349703649016123 -2.7793422715710694 -0.5349703649016123 C -2.7652039254330276 -0.5349703649016123 -2.7510263061112727 -0.5349232370811564 -2.736809413605796 -0.5348289814402345 C -2.722592521100319 -0.5347347257993076 -2.7081949719497462 -0.5346875979788517 -2.693616766154079 -0.5346875979788517 C -2.658035261706674 -0.5346875979788517 -2.630771817570482 -0.535158876183451 -2.6051814110606264 -0.5361956882335768 C -2.565358402771807 -0.5378215980394517 -2.525276191470459 -0.5403900642545305 -2.4865135591419953 -0.5428878387389203 C -2.430784911447881 -0.5464695530938919 -2.3731240231149 -0.5501690870000081 -2.3172304280491747 -0.5509231321273682 C -2.296423495316022 -0.5512058990501288 -2.2750039009168894 -0.5513472825115117 -2.2517934493402687 -0.5513472825115117 C -2.1945331474812013 -0.5513472825115117 -2.136023958379936 -0.5504754178329967 -2.0794234460073087 -0.5496271170647148 L -2.02873747510243 -0.5488966358475827 C -1.979677414003423 -0.5482368463611396 -1.9306409168146468 -0.5428171470082265 -1.8787296225778034 -0.5371146807325476 C -1.8341702683327443 -0.5321898234944618 -1.7881028238329546 -0.5270764549745423 -1.7414227176671884 -0.5251677782459017 C -1.7213305568776804 -0.5243508960245937 -1.7012383960881756 -0.5235654323502598 -1.6811462352986704 -0.5228113872228947 C -1.6065664594204994 -0.5199130262645993 -1.5294417812374803 -0.5168968457551492 -1.4540372685012555 -0.5117599133249916 C -1.356836138802218 -0.505114890640114 -1.260459745961232 -0.49724454462327194 -1.1675943757445286 -0.4883373865563042 C -1.122610871115326 -0.48404875489443355 -1.0773917273838212 -0.48218720598625897 -1.0336571099968133 -0.4804199127190012 C -0.9802377255052419 -0.47822846906760497 -0.9297873937026653 -0.47617840887758645 -0.8798554679251436 -0.47000466439730826 C -0.8016704137817734 -0.4603670251132084 -0.7263837205966985 -0.44879714519024505 -0.646690576198603 -0.4367324231524492 L -0.5977718985609819 -0.4293097914299786 C -0.5944110855012861 -0.42879413323898774 -0.591015994981873 -0.4285341843129086 -0.5876158532518163 -0.42853218239238555 C -0.563458233275683 -0.4269961426495026 -0.5412870515061909 -0.4418961823820674 -0.5335838070942658 -0.46484416805691775 C -0.526161175371795 -0.49639624385498493 -0.5159580022421739 -0.5269821993336153 -0.5051421674465755 -0.5593590119897315 C -0.49432633265097214 -0.5917358246458477 -0.48303921965076935 -0.625573599736228 -0.4748389788907059 -0.660448186876734 C -0.46663873813064205 -0.695322774017235 -0.4618081365334783 -0.7304801280804966 -0.45711891839769203 -0.7644592866322597 C -0.4524297002619111 -0.798438445184023 -0.4480939407795743 -0.8301554683536958 -0.44062418123664315 -0.861683980241525 C -0.432612451758418 -0.8956631387932882 -0.42648583509860094 -0.9281577710005542 -0.4204299101694775 -0.9595920272474665 C -0.41458606043241586 -0.9902251105465578 -0.4086479550544424 -1.0220128254469198 -0.40089542858875005 -1.0544603298337298 C -0.39828050224783107 -1.0663703687809354 -0.4015311502090668 -1.0788122019479447 -0.4096376392840968 -1.0879210823604326 Z" fill="#c84449" transform="matrix(1,0,0,1,0,0)" fill-rule="nonzero"></path></g><g clip-path="url(#SvgjsClipPath100127e85381-b69b-4db8-8094-1e9048750ca1)"><path d=" M -1.195140586803476 0.17456253603601546 C -1.3493663792592838 0.22963139424368695 -1.25020944501115 0.4444399999010038 -1.2832696110639374 0.5711195812978571 C -1.294052497629436 0.5984805815484109 -1.3223910085754698 0.6146824125559309 -1.3514400033595302 0.6100942888183949 C -1.3676400356043783 0.6144048995064919 -1.3847404932631617 0.6075013458531169 -1.3934073274792826 0.5931518373629743 C -1.4540137045910222 0.45544434597844097 -1.3053018671290522 0.2571776053026342 -1.4560402008708104 0.15575853567242004 C -1.4575011633050745 0.15830343797726587 -1.4518929526703177 0.16313403957443495 -1.4446117044092248 0.17411482174164394 C -1.428434145709394 0.2089649119547512 -1.4185575373986326 0.24640507576928794 -1.4154395835443974 0.28470025245135844 C -1.4154395835443974 0.3948615327769345 -1.476022396745909 0.4995088581086755 -1.437471839609512 0.6096701384342513 C -1.4312621361514704 0.6213945052178502 -1.4216735592443817 0.6309830821249338 -1.4099491924607905 0.6371927855829758 C -1.338338469271609 0.675766906629593 -1.2447190539275428 0.6427067405768057 -1.2392050989337053 0.5545777163163419 C -1.2281771889460327 0.4278981349194937 -1.2997879121352143 0.2681819513800814 -1.195140586803476 0.17456253603601546 Z" fill="#c84449" transform="matrix(1,0,0,1,0,0)" fill-rule="nonzero"></path></g><g clip-path="url(#SvgjsClipPath100127e85381-b69b-4db8-8094-1e9048750ca1)"><path d=" M -1.354856770342891 0.6096701384342513 C -1.353702138741618 0.6098586497160952 -1.352500379319884 0.6099529053570121 -1.3514400033595302 0.6100942888183949 L -1.3493663792592865 0.6096701384342513 Z" fill="#c84449" transform="matrix(1,0,0,1,0,0)" fill-rule="nonzero"></path></g><g clip-path="url(#SvgjsClipPath100127e85381-b69b-4db8-8094-1e9048750ca1)"><path d=" M -1.7539822818198139 0.10563809861306228 C -1.5994437170827887 0.10563809861306228 -1.451234649620833 0.04424789280365071 -1.3419593825404474 -0.06502737427674266 C -1.2326841154600592 -0.1743026413571258 -1.1712939096506476 -0.3225117088190864 -1.1712939096506503 -0.4770502735561064 C -1.1711258498365256 -0.6065004619433424 -1.214257756711592 -0.7322880326664422 -1.2938262428470635 -0.834396972195171 L -2.2142090125233063 -0.834396972195171 C -2.29377749865876 -0.7322880326663717 -2.3369094055338087 -0.6065004619432618 -2.336741345719669 -0.4770502735561064 C -2.336741345719669 -0.32249945562948656 -2.275341434978196 -0.17427967452695792 -2.16605087725452 -0.06500237592950175 C -2.0567603195308437 0.0442749226679493 -1.9085330900325945 0.10565684984863388 -1.7539822775316525 0.10563809861254336 Z" fill="#c84449" transform="matrix(1,0,0,1,0,0)" fill-rule="nonzero"></path></g><g clip-path="url(#SvgjsClipPath100127e85381-b69b-4db8-8094-1e9048750ca1)"><path d=" M -1.4083704104753791 0.7310949678498022 C -1.4815363517397442 0.7363732837413375 -1.5586374660125326 0.7143410276762203 -1.6302481892017169 0.7308593287475025 C -1.6357621441955543 0.7363732837413375 -1.6412760991893895 0.7418636748249445 -1.6302481892017169 0.7473540659085518 C -1.5366287738576512 0.7749002769675037 -1.4264674935320727 0.791418578038781 -1.3347567549166421 0.74952194564972 C -1.334803882737098 0.7379285018165236 -1.3714693270550873 0.7330507723988988 -1.4083704104753791 0.7310949678498022 Z" fill="#c84449" transform="matrix(1,0,0,1,0,0)" fill-rule="nonzero"></path></g><g clip-path="url(#SvgjsClipPath100127e85381-b69b-4db8-8094-1e9048750ca1)"><path d=" M -2.907789146235178 0.254137860882961 C -2.9851494635204996 0.26266799638624616 -3.062250577793286 0.23514534923752195 -3.1338613009824696 0.26266799638624616 C -3.0457322767220085 0.30124211743286855 -2.92456665031899 0.3121522078693888 -2.834175490676444 0.27256483868287873 C -2.834222618496902 0.2609949587599103 -2.870888062814892 0.25611722934228554 -2.907789146235178 0.254137860882961 Z" fill="#c84449" transform="matrix(1,0,0,1,0,0)" fill-rule="nonzero"></path></g><g clip-path="url(#SvgjsClipPath100127e85381-b69b-4db8-8094-1e9048750ca1)"><path d=" M -2.37486775247192 0.2975190196165143 C -2.5932777156391316 0.2159159973325835 -2.7451330946658175 0.015787616164991025 -2.764921158510267 -0.2165276820524571 C -2.820013580628169 0.0423454357350892 -2.577658763911902 0.3012185535226355 -2.3250065184250923 0.3291417871452653 C -2.323027149965768 0.3234393208695965 -2.3438812105193794 0.3128591251762929 -2.37486775247192 0.2975190196165143 Z" fill="#c84449" transform="matrix(1,0,0,1,0,0)" fill-rule="nonzero"></path></g><g clip-path="url(#SvgjsClipPath100127e85381-b69b-4db8-8094-1e9048750ca1)"><path d=" M -1.655932851352492 0.21099234125170252 C -1.9662224212620496 0.22963139424368695 -2.307687044405992 0.09194746676939158 -2.4068439786541256 -0.2219945092258313 C -2.4178483247315676 -0.19447186207711198 -2.4068439786541256 -0.17251029774268378 -2.401330023660288 -0.14489339495304243 C -2.3021966533223845 0.16353462604834035 -1.9331858191194904 0.2957517263492666 -1.6347017682351956 0.21660055188645444 C -1.6349609712477284 0.213702190928154 -1.6427134977134208 0.2119113337506784 -1.655932851352492 0.21099234125170252 Z" fill="#c84449" transform="matrix(1,0,0,1,0,0)" fill-rule="nonzero"></path></g><g clip-path="url(#SvgjsClipPath100127e85381-b69b-4db8-8094-1e9048750ca1)"><path d=" M -2.302950698449747 0.4836739104340695 C -2.3078519917776 0.4870671135071971 -2.297743074288901 0.5081568131631105 -2.2824500965495855 0.5390726633849676 C -2.1621697398946154 0.7364017646214969 -2.1612621916193415 0.9841624437716106 -2.2800937055265784 1.1823674126658759 C -2.0818740926712325 1.006227183696093 -2.1203775219871686 0.6592250416480878 -2.302950698449747 0.4836739104340695 Z" fill="#c84449" transform="matrix(1,0,0,1,0,0)" fill-rule="nonzero"></path></g><g clip-path="url(#SvgjsClipPath100127e85381-b69b-4db8-8094-1e9048750ca1)"><path d=" M -1.9099989314531052 2.321046246713528 C -2.1112732235221205 2.2069590626550957 -2.2342148019651136 1.9920982092453907 -2.2305859301332056 1.760767153173159 C -2.318714954393667 2.0141263159668705 -2.109420303730185 2.2950316898195338 -1.8646855320806806 2.3589370143634794 C -1.8621170658656019 2.353564442831027 -1.8813687805235686 2.3402979613715 -1.9099989314531052 2.321046246713528 Z" fill="#c84449" transform="matrix(1,0,0,1,0,0)" fill-rule="nonzero"></path></g><g clip-path="url(#SvgjsClipPath100127e85381-b69b-4db8-8094-1e9048750ca1)"><path d=" M -2.547756161829943 1.8891904639270418 C -2.4398805807966824 1.8323778763623406 -2.3242289093874993 1.7662811081669991 -2.2636460961859903 1.656119827841418 C -2.395816068666453 1.749762807095717 -2.539013951134586 1.8213499663746657 -2.6616405399718683 1.9315819384309356 C -2.6563150962598767 1.941714419829868 -2.6014111854238138 1.9173257727417434 -2.547756161829943 1.8891904639270418 Z" fill="#c84449" transform="matrix(1,0,0,1,0,0)" fill-rule="nonzero"></path></g><g clip-path="url(#SvgjsClipPath100127e85381-b69b-4db8-8094-1e9048750ca1)"><path d=" M -2.004772978398444 1.0723003879812119 C -2.175517071925529 1.3642101079113176 -2.384811722589011 1.6451154817639808 -2.7374456391820035 1.6826056629400217 C -2.737280691810395 1.685480459988094 -2.7253809171442076 1.6868236028712085 -2.704456164859905 1.6869178585121252 C -2.3352803832854026 1.6946468210675896 -2.1425040336932026 1.3640922883601676 -1.960755594088673 1.0832811701484308 C -1.8671361787446044 0.9345693326864604 -1.6743598291524049 0.9621155437454076 -1.5256479916904317 0.9180510316151782 C -1.696227137845911 0.9070702494479641 -1.9056396080605404 0.9070702494479641 -2.004772978398444 1.0723003879812119 Z" fill="#c84449" transform="matrix(1,0,0,1,0,0)" fill-rule="nonzero"></path></g><g clip-path="url(#SvgjsClipPath100127e85381-b69b-4db8-8094-1e9048750ca1)"><path d=" M -2.3366470900787473 0.900755121506303 C -2.336647090078752 0.7607654802045687 -2.3922577585570273 0.6265094501516815 -2.4912453832173584 0.5275218254913454 C -2.5902330078776896 0.4285342008310191 -2.7244890379305793 0.3729235323527391 -2.8644786792323162 0.3729235323527391 C -3.021415973766141 0.3727575148401856 -3.1702487729254067 0.442599295092315 -3.270414160765725 0.5634141826526258 C -3.1845001440668903 0.8347761728621115 -3.093237119745829 1.1240231709362165 -3.001785584142929 1.4104896276031762 C -2.957021818509137 1.4224993829833923 -2.9108726313752005 1.4285681001240906 -2.864525807052772 1.4285395828394112 C -2.724536165580025 1.4285520824725353 -2.5902751699646864 1.3729534013190205 -2.491278707002616 1.2739746147185147 C -2.3922822440405436 1.1749958281180035 -2.336659588595885 1.040744762979151 -2.3366470900787473 0.900755121506303 Z" fill="#c84449" transform="matrix(1,0,0,1,0,0)" fill-rule="nonzero"></path></g><g clip-path="url(#SvgjsClipPath100127e85381-b69b-4db8-8094-1e9048750ca1)"><path d=" M -1.5476566838453185 1.145819787899029 C -1.7071136346405797 1.145819787899029 -1.8600396438726983 1.2091638149625692 -1.972792735087358 1.321916906177226 C -2.0855458263020124 1.4346699973918833 -2.1488898533655503 1.5875960066240067 -2.1488898533655503 1.7470529574192604 C -2.1488777983781695 2.0133542082292046 -1.9737404480197807 2.2479412361433795 -1.7184243412837148 2.3236382768385173 C -1.5835445191257147 1.9790160897240696 -1.437589659160662 1.5875252851616914 -1.2976671602145071 1.2001346009793403 C -1.3761146239563455 1.1642423391643653 -1.4613882187894807 1.1457150853147713 -1.5476566838453185 1.145819787899029 Z" fill="#c84449" transform="matrix(1,0,0,1,0,0)" fill-rule="nonzero"></path></g><g clip-path="url(#SvgjsClipPath100127e85381-b69b-4db8-8094-1e9048750ca1)"><path d=" M -2.7669476547900516 0.5725098520014333 C -2.7669476547900516 0.5998912858013552 -2.789144688114197 0.6220883191255002 -2.8165261219141184 0.6220883191255002 C -2.8439075557140407 0.6220883191255002 -2.8661045890381853 0.5998912858013552 -2.8661045890381853 0.5725098520014333 C -2.8661045890381853 0.5451284182015113 -2.8439075557140407 0.5229313848773667 -2.8165261219141184 0.5229313848773667 C -2.789144688114197 0.5229313848773667 -2.7669476547900516 0.5451284182015113 -2.7669476547900516 0.5725098520014333 Z" fill="#e37f7c" transform="matrix(1,0,0,1,0,0)" fill-rule="nonzero"></path></g><g clip-path="url(#SvgjsClipPath100127e85381-b69b-4db8-8094-1e9048750ca1)"><path d=" M -2.6120856367580343 0.8644666997519987 C -2.639415012117577 0.8644666997519987 -2.661569848241182 0.8866215358755989 -2.661569848241184 0.9139509112351414 C -2.661569847665258 0.9412802876374871 -2.639415011074779 0.9634351232942127 -2.6120856357152364 0.9634351227182889 C -2.584756261398489 0.9634351227182889 -2.5626014252748863 0.9412802865946892 -2.562601425274884 0.9139509112351414 C -2.562601425850808 0.8866215348328006 -2.5847562624412896 0.8644666991760701 -2.6120856378008295 0.8644666997519987 Z" fill="#e37f7c" transform="matrix(1,0,0,1,0,0)" fill-rule="nonzero"></path></g><g clip-path="url(#SvgjsClipPath100127e85381-b69b-4db8-8094-1e9048750ca1)"><path d=" M -1.95625488723473 -0.4270947838683581 C -1.95625488723473 -0.39972636405788486 -1.9784413706380934 -0.37753988065452126 -2.0058097904485668 -0.37753988065452126 C -2.03317821025904 -0.37753988065452126 -2.055364693662403 -0.39972636405788486 -2.055364693662403 -0.4270947838683581 C -2.055364693662403 -0.4544632036788313 -2.03317821025904 -0.4766496870821948 -2.0058097904485668 -0.4766496870821948 C -1.9784413706380934 -0.4766496870821948 -1.95625488723473 -0.4544632036788313 -1.95625488723473 -0.4270947838683581 Z" fill="#e37f7c" transform="matrix(1,0,0,1,0,0)" fill-rule="nonzero"></path></g><g clip-path="url(#SvgjsClipPath100127e85381-b69b-4db8-8094-1e9048750ca1)"><path d=" M -1.5476566838453194 -0.16532330512251248 C -1.5476566838453194 -0.13794187132259061 -1.569853717169464 -0.1157448379984456 -1.5972351509693863 -0.1157448379984456 C -1.6246165847693081 -0.1157448379984456 -1.6468136180934532 -0.13794187132259061 -1.6468136180934532 -0.16532330512251248 C -1.6468136180934532 -0.19270473892243434 -1.6246165847693081 -0.21490177224657936 -1.5972351509693863 -0.21490177224657936 C -1.569853717169464 -0.21490177224657936 -1.5476566838453194 -0.19270473892243434 -1.5476566838453194 -0.16532330512251248 Z" fill="#e37f7c" transform="matrix(1,0,0,1,0,0)" fill-rule="nonzero"></path></g><g clip-path="url(#SvgjsClipPath100127e85381-b69b-4db8-8094-1e9048750ca1)"><path d=" M -1.5476566838453194 1.3053710240668344 C -1.5476566838453194 1.3327524578667567 -1.569853717169464 1.3549494911909012 -1.5972351509693863 1.3549494911909012 C -1.6246165847693081 1.3549494911909012 -1.6468136180934532 1.3327524578667567 -1.6468136180934532 1.3053710240668344 C -1.6468136180934532 1.2779895902669125 -1.6246165847693081 1.255792556942768 -1.5972351509693863 1.255792556942768 C -1.569853717169464 1.255792556942768 -1.5476566838453194 1.2779895902669125 -1.5476566838453194 1.3053710240668344 Z" fill="#e37f7c" transform="matrix(1,0,0,1,0,0)" fill-rule="nonzero"></path></g><g clip-path="url(#SvgjsClipPath100127e85381-b69b-4db8-8094-1e9048750ca1)"><path d=" M -1.8570979529865963 1.5743294954328513 C -1.8570979529865963 1.6017109292327736 -1.8792949863107413 1.6239079625569182 -1.9066764201106632 1.6239079625569182 C -1.934057853910585 1.6239079625569182 -1.95625488723473 1.6017109292327736 -1.95625488723473 1.5743294954328513 C -1.95625488723473 1.5469480616329294 -1.934057853910585 1.5247510283087844 -1.9066764201106632 1.5247510283087844 C -1.8792949863107413 1.5247510283087844 -1.8570979529865963 1.5469480616329294 -1.8570979529865963 1.5743294954328513 Z" fill="#e37f7c" transform="matrix(1,0,0,1,0,0)" fill-rule="nonzero"></path></g><g clip-path="url(#SvgjsClipPath100127e85381-b69b-4db8-8094-1e9048750ca1)"><path d=" M -1.8075666136829898 1.928471502280571 C -1.8075666136829898 1.9558399220910445 -1.8297530970863534 1.9780264054944081 -1.8571215168968265 1.9780264054944081 C -1.8844899367072996 1.9780264054944081 -1.9066764201106632 1.9558399220910445 -1.9066764201106632 1.928471502280571 C -1.9066764201106632 1.901103082470097 -1.8844899367072996 1.8789165990667338 -1.8571215168968265 1.8789165990667338 C -1.8297530970863534 1.8789165990667338 -1.8075666136829898 1.901103082470097 -1.8075666136829898 1.928471502280571 Z" fill="#e37f7c" transform="matrix(1,0,0,1,0,0)" fill-rule="nonzero"></path></g><g clip-path="url(#SvgjsClipPath100127e85381-b69b-4db8-8094-1e9048750ca1)"><path d=" M -2.307168638380931 2.0322469629337996 C -2.3462611654526166 2.0526768731032696 -2.3517515565362235 2.091156738508975 -2.3572655115300587 2.1298015512862913 C -2.362779466523896 2.1957804999304833 -2.351751556536221 2.2619715237667517 -2.390254985852157 2.3225543369682633 C -2.399689315309411 2.333966642999649 -2.414060294047114 2.340111838550293 -2.428829106898779 2.3390490741293175 C -2.5389668233141247 2.3170168180642 -2.4894119201002884 2.173795371685837 -2.511444176165403 2.0911803024192084 C -2.522448522242845 2.063657655270489 -2.5389668233141247 2.0195931431402547 -2.5774231248095973 2.0305974892177017 C -2.5664187787321553 2.0416253992053766 -2.5554144326547132 2.047092226378751 -2.5499004776608754 2.058143700276654 C -2.51691100333878 2.140758769543283 -2.5609048237383174 2.2344017487975765 -2.522354266601926 2.3170168180642055 C -2.512618256573508 2.338840023785554 -2.4974464958452773 2.3578006680753307 -2.4782897544716964 2.372085676271877 C -2.4605288759148833 2.38407906468463 -2.438551092555521 2.3880711396861143 -2.417706941270185 2.383090022349319 C -2.2855369687897222 2.3445394652129297 -2.3295779170097237 2.1848232816735123 -2.3185735709322817 2.080175956341771 C -2.315019600645307 2.0605092478612392 -2.3030568656458925 2.0433741360743047 -2.285819735712485 2.0332602110737072 C -2.2861025026352486 2.03050323357677 -2.2943263073055427 2.0275106169775525 -2.307168638380931 2.0322469629337996 Z" fill="#c84449" transform="matrix(1,0,0,1,0,0)" fill-rule="nonzero"></path></g><g clip-path="url(#SvgjsClipPath100127e85381-b69b-4db8-8094-1e9048750ca1)"><path d=" M -2.02376549004388 2.3925627142617927 C -2.0843483032453918 2.3705304581966806 -2.128412815375621 2.436627226392022 -2.1339267703694564 2.480691738522257 C -2.139417161453061 2.5577928527950404 -2.089862258239225 2.6404079220616694 -2.1339267703694564 2.717509036334458 C -2.141483833009012 2.7281654162315414 -2.153856903190156 2.734351951322115 -2.1669162446915546 2.734003773495507 C -2.183410981852604 2.734003773495507 -2.2054668018279466 2.739517728489342 -2.2164004561747 2.734003773495507 C -2.310019871518766 2.6624166142165535 -2.2164004561747 2.5467649428073753 -2.2493899304967986 2.4531219635530714 C -2.2658846676578475 2.4145714064166772 -2.3099727436983075 2.370506894286448 -2.35144522570323 2.3925391503515647 C -2.3516337369850713 2.3954610752200933 -2.3448944586592715 2.3976996466919505 -2.3341493155943573 2.4022946091868147 C -2.3041072723103824 2.4124585944165235 -2.282110967417959 2.4383504557767246 -2.2769361415557454 2.4696402646243585 C -2.27142218656191 2.5467649428073704 -2.3099256158778463 2.618352102086319 -2.2934308787167996 2.7009671713529477 C -2.2853971184411392 2.7282211492693103 -2.2678347249591795 2.7516794891345024 -2.243946667233652 2.7670639395482945 C -2.209092100612671 2.783582070386097 -2.1686635174392874 2.783582070386097 -2.133808950818307 2.7670639395482945 C -2.040165971564008 2.711995081340623 -2.084324739335159 2.590805891027372 -2.1008194764962083 2.502700430677141 C -2.111965206035033 2.4476315724694695 -2.0679006939048037 2.4090810153330753 -2.02376549004388 2.3925627142617927 Z" fill="#c84449" transform="matrix(1,0,0,1,0,0)" fill-rule="nonzero"></path></g><g clip-path="url(#SvgjsClipPath100127e85381-b69b-4db8-8094-1e9048750ca1)"><path d=" M -2.9410849513902675 -0.43680311488314827 C -2.963117207455382 -0.43128915988931826 -2.9686311624492197 -0.409256903824196 -2.9740744257123657 -0.3927386027529238 C -2.9795883807062036 -0.3211278795637422 -2.957579688551314 -0.24954072028478858 -2.968584034628759 -0.17243960601199992 C -2.9708542814458005 -0.14902875260938275 -2.978385976105934 -0.12643366862898175 -2.9906162906938736 -0.10634283781665821 C -3.023605765015972 -0.062278325686423885 -3.0787217510441067 -0.0347321146274715 -3.1172958720907293 -0.07879662675770094 C -3.194396986363518 -0.1614116960243248 -3.1393045642456134 -0.33766974454524734 -3.2594805064189694 -0.3774220611033732 C -3.2594805064189694 -0.374405880593928 -3.2549562356547965 -0.3732041211721915 -3.2488296189949795 -0.366488406756625 C -3.194396986363518 -0.27157297634990074 -3.221919633512237 -0.1558977410304947 -3.155846429227121 -0.06227832568641878 C -3.14012203171527 -0.039872128707735044 -3.116588217785735 -0.024154902976226023 -3.0898674805829267 -0.018213813556194447 C -3.067718696856457 -0.014546521641629173 -3.045005706070968 -0.01644129520448434 -3.023770712387585 -0.02372776855002945 C -2.88057282991945 -0.09531492782897821 -2.9356416881271215 -0.27708693134373574 -2.952159989198401 -0.403742948830361 C -2.9521835531086316 -0.414770858818031 -2.9410849513902675 -0.42577520489547815 -2.9410849513902675 -0.43680311488314827 Z" fill="#c84449" transform="matrix(1,0,0,1,0,0)" fill-rule="nonzero"></path></g><g clip-path="url(#SvgjsClipPath100127e85381-b69b-4db8-8094-1e9048750ca1)"><path d=" M -1.8340288848713588 0.6647389966419228 C -1.8395428398651963 0.7142232081250706 -1.8395428398651963 0.7693863219736641 -1.8835130963545064 0.8024229241162231 C -1.9440959095560153 0.8354123984383217 -1.9991647677636895 0.791418578038781 -2.0046787227575242 0.7308357648372694 C -2.0157066327451973 0.5821239273753043 -1.9220636534909006 0.42240774383589175 -1.9991647677636895 0.2792098613677565 C -1.9991647677636895 0.2792098613677565 -2.0046787227575242 0.28470025245135844 -2.0078834145488136 0.28283870354318386 C -2.0085196401250265 0.2842525381569869 -2.0078834145488136 0.28545429757872864 -2.00644601602478 0.288187711165413 C -1.9881604216862474 0.4003754877707746 -2.021197023828802 0.5049756852820595 -2.0377153249000814 0.6096701384342564 C -2.043229279893919 0.675766906629603 -2.0542100620611308 0.7418401109147166 -2.0267109788226394 0.8024229241162284 C -2.0121467103053057 0.8285829325194269 -1.9850167821348015 0.8452768995081898 -1.9551002556334576 0.8464874362464578 C -1.7072550478335837 0.8520013912402926 -1.8229302831529948 0.5105367680963504 -1.7568335149576506 0.35079702064671014 C -1.7513195599638132 0.339792674569263 -1.7403387777966017 0.32876476458159276 -1.734801258892536 0.3178075463246066 C -1.8395428398651963 0.3894182695137882 -1.8065062377226369 0.5490873252327448 -1.8340288848713588 0.6647389966419228 Z" fill="#c84449" transform="matrix(1,0,0,1,0,0)" fill-rule="nonzero"></path></g><g clip-path="url(#SvgjsClipPath100127e85381-b69b-4db8-8094-1e9048750ca1)"><path d=" M -1.3935251470304353 0.6456757932657999 L -1.4037047562498257 0.6351898532134181 L -1.4106561097676944 0.6262355673259894 L -1.3988741546526593 0.613982334006355 L -1.3897549213936249 0.6061826797202019 L -1.3821202144790825 0.6154668603508522 C -1.3750510414100616 0.6233843341881551 -1.376512003844323 0.6292046200149839 -1.3790333422389436 0.6328334621904161 C -1.3805260498563063 0.6348466531787154 -1.382295029176885 0.6366394304273792 -1.3842880942202482 0.6381589059024124 Z M -1.2639236407650514 0.623407898098383 L -1.2725244679990255 0.6014934615844156 L -1.2704744078090093 0.6006451608161338 L -1.2609074602556034 0.6221825747664187 Z M -1.4343614034591452 0.4893763767097432 L -1.4506205015178946 0.4886223315823832 L -1.4506205015178946 0.47698175992873093 L -1.4496779451086907 0.46263133859862204 L -1.4214012528326063 0.46498772962162405 L -1.4222495536008886 0.4882217451084776 Z" fill="#382d5e" transform="matrix(1,0,0,1,0,0)" fill-rule="nonzero"></path></g><g clip-path="url(#SvgjsClipPath100127e85381-b69b-4db8-8094-1e9048750ca1)"><path d=" M -2.980413117564254 0.294290763914999 L -2.994857794535287 0.2708211093258497 L -2.978575132566309 0.2548919060103223 L -2.9540922298372663 0.27631150040945607 L -2.980413117564254 0.294290763914999 Z" fill="#382d5e" transform="matrix(1,0,0,1,0,0)" fill-rule="nonzero"></path></g><g clip-path="url(#SvgjsClipPath100127e85381-b69b-4db8-8094-1e9048750ca1)"><path d=" M -2.6933811270517767 0.11157620399103596 L -2.7020526460164422 0.11124630924781931 L -2.7061292024862436 0.10156154214325852 L -2.708485593509253 0.09920515112025652 L -2.706741864152228 0.09703727137908325 L -2.7074252175488995 0.09503433900953073 L -2.7022411572982836 0.09105203818064367 L -2.696538691022607 0.07967066953952417 L -2.684591788535964 0.08954394792592368 L -2.6870659991101205 0.09241874497399616 L -2.6844268411643553 0.08966176747707855 L -2.6898936683377297 0.09569412849597891 L -2.6808451268093814 0.10238627900131747 L -2.685769984047467 0.11077503104322495 Z M -2.7183824358058803 -0.015126941316045306 L -2.730588541305057 -0.01811955791526243 L -2.7282321502820497 -0.029689437838225752 L -2.7301408270106853 -0.020405257207580574 L -2.7301408270106853 -0.02309154297380922 L -2.73150753380403 -0.018378760927795224 L -2.7424411881507833 -0.020428821117808527 L -2.7416871430234204 -0.03416658078194024 L -2.7397784662947853 -0.0460663554481302 L -2.72212909753246 -0.04342719750236257 L -2.7153898192066634 -0.03400163341032947 Z" fill="#382d5e" transform="matrix(1,0,0,1,0,0)" fill-rule="nonzero"></path></g><g clip-path="url(#SvgjsClipPath100127e85381-b69b-4db8-8094-1e9048750ca1)"><path d=" M -1.9174451270858062 0.2217846121370728 L -1.9376865259734375 0.2077876494604085 L -1.9225584956057333 0.18485996480655342 L -1.9031418335761559 0.19918682222643436 L -1.910729412670237 0.21268894278826633 Z M -1.879742870717696 0.22084205572786897 L -1.8976514424925486 0.20293348395301658 L -1.886599968594643 0.1925417995415568 L -1.8780462691811275 0.20052996510954868 L -1.8723909307259095 0.19487462665433064 L -1.877857757899286 0.20069491248115945 L -1.8694218780369227 0.2085888224082344 Z M -2.2119940049616797 0.0935969404854895 L -2.22530761424167 0.0935969404854895 L -2.228983584237561 0.08902554190085832 L -2.2206419600161142 0.0814143988965439 L -2.229124967698939 0.08886059452924755 L -2.2246242608449966 0.08480760196967152 L -2.2291720955193997 0.08881346670878654 L -2.2296669376342297 0.0882243689530322 L -2.2283709225715764 0.08714042908245068 L -2.2296905015444626 0.08815367722233836 L -2.2211368021309443 0.08108450415332236 L -2.221937975078768 0.0807074815896347 L -2.2211368021309443 0.08108450415332236 L -2.2209247269388754 0.08089599287147853 L -2.2207597795672642 0.08089599287147853 L -2.2209247269388754 0.08089599287147853 L -2.2197465314273717 0.079010880053076 L -2.2197465314273717 0.06996233852472522 L -2.2197465314273717 0.07872811313031525 L -2.219605147965991 0.078256834925716 L -2.219605147965991 0.06942036858943701 L -2.219605147965991 0.07811545146433296 L -2.2165182757258526 0.06975026333265855 L -2.2174843960452866 0.07302564685463153 L -2.2161883809826355 0.06989164679403137 L -2.2193223810432356 0.07931721088606447 L -2.2191809975818555 0.07919939133490961 L -2.2155757193166536 0.07000946634518113 L -2.206432922147386 0.07354405287969179 L -2.207163403364518 0.07809188755409502 L -2.206079463493934 0.07929364697582653 L -2.2082473432351 0.08445414331621692 L -2.2098261252205136 0.0928900231785803 Z" fill="#382d5e" transform="matrix(1,0,0,1,0,0)" fill-rule="nonzero"></path></g><g clip-path="url(#SvgjsClipPath100127e85381-b69b-4db8-8094-1e9048750ca1)"><path d=" M -2.0787400926106328 2.2321160495052483 L -2.0858092656796536 2.2286992825218874 L -2.0952348297716794 2.2272383200876287 L -2.0950934463103015 2.2241043200270285 L -2.1526600790023602 2.195332785636112 L -2.083806333310096 2.205206064022516 L -2.0800596715835162 2.205206064022516 L -2.07862227305948 2.2059601091498764 L -2.0579095959672493 2.2089291618388605 Z M -2.2147509824585967 2.0553867227797262 L -2.215010185471127 2.0551275197671988 L -2.1979970422850177 2.038821293887988 Z M -2.225189794690518 2.030903820050685 L -2.2260145315485693 2.02927791024481 L -2.230727313594583 2.02927791024481 L -2.23181125346517 2.0182264363469073 L -2.2312928474401073 2.017472391219547 C -2.231504308443907 2.012714367974925 -2.228531247113551 2.0083942885660884 -2.2240115991790144 2.0068921955262433 L -2.218756847197712 1.9989982855991686 L -2.1892312676794328 2.0267801357604203 L -2.210156019963735 2.0285238651174504 L -2.21152272675708 2.0305267974870076 Z" fill="#382d5e" transform="matrix(1,0,0,1,0,0)" fill-rule="nonzero"></path></g><g clip-path="url(#SvgjsClipPath100127e85381-b69b-4db8-8094-1e9048750ca1)"><path d=" M -2.4252473925438105 1.61500080448995 L -2.429323949013612 1.5875017212514586 L -2.3956039934743814 1.5838964429862594 L -2.3923521738626317 1.6101702028927862 Z M -2.250308922995772 1.442300906413771 L -2.2649421112486463 1.4166162442629933 L -2.24234432133801 1.4077090861960304 L -2.1785332524349816 1.3882217324357642 Z M -2.14764096612336 1.34879931062085 L -2.1649133123219997 1.3327758516644002 L -2.1646541093094696 1.3325166486518722 Z M -2.14764096612336 1.34879931062085 L -2.1649133123219997 1.3327758516644002 Z M -1.850947772416549 0.9929842661467987 L -1.8737576375192568 0.9676294987392429 L -1.8572629003582075 0.9496266713234736 L -1.838529591725301 0.9618092129124189 L -1.8280436516729193 0.9700094536724828 Z M -1.7731868686573198 0.9552820097786916 L -1.7858171245406367 0.937279182362917 L -1.7961616811316357 0.9205488060995681 L -1.7562679811121296 0.9180274677049503 L -1.7637848684755193 0.9361716785821024 Z" fill="#382d5e" transform="matrix(1,0,0,1,0,0)" fill-rule="nonzero"></path></g><g clip-path="url(#SvgjsClipPath100127e85381-b69b-4db8-8094-1e9048750ca1)"><path d=" M -2.2307744414150443 2.6814091258619923 L -2.154780830923068 2.6277541022681192 L -2.135694063636712 2.6487259823728877 L -2.1524715677205215 2.654758343391783 Z M -2.1043540630307187 2.5485086721643953 L -2.118728048271061 2.534370326026353 L -2.1269047251208963 2.524756250652491 L -2.1024925141225443 2.5067298593264837 L -2.084937401001141 2.5236251829614433 Z" fill="#382d5e" transform="matrix(1,0,0,1,0,0)" fill-rule="nonzero"></path></g><g clip-path="url(#SvgjsClipPath100127e85381-b69b-4db8-8094-1e9048750ca1)"><path d=" M -2.9469994928580157 -0.3559553388837823 L -2.967217327835414 -0.37336906854380225 L -2.96314077136561 -0.3845854898133161 L -2.9560715982965915 -0.39047646737083375 L -2.9510289215073557 -0.3905942869219886 L -2.949143808688948 -0.390311519999228 L -2.9329789662711208 -0.3892511440388743 Z M -2.9507697184948256 -0.3763145573225636 L -2.9465989063841027 -0.3685855947670993 C -2.9443813154911673 -0.3699415424891602 -2.942712624499895 -0.37203574968320563 -2.9418861243380885 -0.3745001362348448 L -2.950816846315284 -0.3763145573225636 Z" fill="#382d5e" transform="matrix(1,0,0,1,0,0)" fill-rule="nonzero"></path></g><g clip-path="url(#SvgjsClipPath100127e85381-b69b-4db8-8094-1e9048750ca1)"><path d=" M -2.015400301912206 0.7138226216511601 L -2.0337094601609715 0.6941467566090549 L -2.0407786332299898 0.6941467566090549 L -2.041933264831263 0.6856401850159977 L -2.049002437900284 0.6792072375231866 L -2.0393647986161842 0.6710541245835839 L -2.022021760686853 0.6545593874225348 L -2.019665369663846 0.6752956284249987 C -2.0171531921789514 0.6785857559201633 -2.0166808284951854 0.6830005395799836 -2.0184400463318815 0.6867476887968071 Z M -1.8339581931406674 0.6729392374019916 L -1.8460229151784606 0.643342966153021 L -1.8128684934847517 0.6341294772530646 L -1.8026888842653608 0.657457748380835 Z" fill="#382d5e" transform="matrix(1,0,0,1,0,0)" fill-rule="nonzero"></path></g></g></g><defs><clipPath id="SvgjsClipPath1003"><path d=" M -3.9452374219344626 -1.2403560176387574 h 3.5452374219344627 v 4.740799535277515 h -3.5452374219344627 Z"></path></clipPath><clipPath id="SvgjsClipPath100127e85381-b69b-4db8-8094-1e9048750ca1"><path d=" M -3.9452374219344626 -1.2403560176387574 L -0.3999999999999999 -1.2403560176387574 L -0.3999999999999999 3.5004435176387574 L -3.9452374219344626 3.5004435176387574 Z"></path></clipPath></defs></svg>